<?xml version="1.0" encoding="utf-8"?>
<!-- Generator: Adobe Illustrator 27.5.0, SVG Export Plug-In . SVG Version: 6.00 Build 0)  -->
<svg version="1.1" xmlns="http://www.w3.org/2000/svg" xmlns:xlink="http://www.w3.org/1999/xlink" x="0px" y="0px"
	 viewBox="0 0 750 500" style="enable-background:new 0 0 750 500;" xml:space="preserve">
<g id="BACKGROUND">
	<rect style="fill:#FFFFFF;" width="750" height="500"/>
</g>
<g id="OBJECTS">
	<path style="fill:#FFE5E1;" d="M98.64,434.667h552.431c10.563-41.137,21.049-83.804,14.244-125.771
		c-6.87-42.364-36.578-83.906-77.418-88.688c-20.694-2.423-41.312,4.628-62.128,5.205c-25.155,0.697-50.449-8.478-69.787-25.312
		c-22.258-19.376-36.153-47.742-58.747-66.69c-28.863-24.205-71.007-29.64-104.631-13.493
		c-35.226,16.917-57.802,53.123-77.319,88.142c-19.517,35.019-39.257,72.212-72.049,93.826
		c-17.112,11.278-37.751,18.334-49.884,35.257c-10.22,14.254-12.463,33.404-9.805,51C85.999,404.371,92.202,419.65,98.64,434.667z"
		/>
	<g>
		<g>
			<path style="fill:#7DC1A3;" d="M230.349,214c-2.327-0.574-4.616-1.542-6.387-3.158c-1.771-1.616-2.917-4.083-2.424-6.429
				c0.721-3.432,4.507-5.322,7.986-5.764c3.479-0.441,7.09,0.048,10.452-0.951c-8.377-0.23-16.658-3.162-23.314-8.254
				c-3.514-2.689-6.839-6.919-5.531-11.147c0.868-2.806,3.644-4.692,6.517-5.303c2.873-0.611,5.857-0.164,8.747,0.361
				c-9.109-8.245-16.116-18.794-20.186-30.387c-1.22-3.474-2.029-7.764,0.452-10.486c1.631-1.789,4.32-2.315,6.697-1.856
				c2.377,0.459,4.502,1.761,6.47,3.171c9.159,6.566,16.153,16.101,19.665,26.809c0.452-4.044,1.35-8.193,3.791-11.448
				c2.441-3.255,6.763-5.384,10.659-4.209c4.908,1.48,7.094,7.19,7.772,12.271c1.214,9.1-0.25,18.542-4.163,26.847
				c3.583-2.397,5.69-6.407,8.587-9.6c2.897-3.193,7.585-5.672,11.427-3.716c3.643,1.854,4.551,6.645,4.365,10.729
				C281.421,192.676,259.119,221.093,230.349,214z"/>
			<path style="fill:#5DB18C;" d="M208.814,133.238c-0.442-0.536-0.954-0.98-1.508-1.354c1.64-1.303,3.966-1.659,6.052-1.257
				c2.377,0.459,4.502,1.761,6.47,3.171c9.159,6.566,16.153,16.101,19.665,26.809c0.452-4.044,1.35-8.193,3.791-11.448
				c2.441-3.255,6.763-5.384,10.659-4.209c4.908,1.48,7.094,7.19,7.772,12.271c1.214,9.1-0.25,18.542-4.163,26.847
				c3.583-2.397,5.69-6.407,8.587-9.6c2.897-3.193,7.585-5.672,11.427-3.716c3.643,1.854,4.551,6.645,4.365,10.729
				c-0.312,6.84-8.758,20.106-21.842,27.777C247.193,181.486,228.187,156.749,208.814,133.238z"/>
		</g>
		<path style="fill:none;stroke:#FFC366;stroke-width:1.0766;stroke-linecap:round;stroke-miterlimit:10;" d="M237.607,170.926
			c12.495,17.341,35.869,68.048,40.89,88.277"/>
	</g>
	<g>
		<g>
			<path style="fill:#FFC366;" d="M235.176,320.213c-4.545-4.494-10.429-7.93-16.806-8.357c-6.377-0.428-13.176,2.626-16.079,8.321
				c-2.902,5.695-0.779,13.764,5.051,16.383c-6.03-0.731-11.51-3.734-17.269-5.665c-5.759-1.931-12.557-2.648-17.529,0.84
				c-3.919,2.749-5.923,7.971-4.848,12.636c1.074,4.665,5.161,8.484,9.887,9.242c-9.388-1.216-19.206,4.962-22.171,13.952
				c-2.77,8.398,0.079,17.502,2.915,25.879c3.688-4.244,9.804-5.327,15.423-5.528c5.619-0.201,11.478,0.167,16.612-2.125
				c5.135-2.291,9.125-8.454,6.748-13.55c3.763,6.961,13.083,10.298,20.409,7.309c7.326-2.989,11.651-11.894,9.47-19.501
				c2.237,3.908,8.484,3.489,11.686,0.322C250.319,348.854,245.285,330.074,235.176,320.213z"/>
			<path style="fill:#FFDB82;" d="M232.667,318.38c-7.735,15.752-19.204,27.745-34.424,37.245c-8.01,5-16.04,9.827-23.419,15.765
				c-6.965,5.605-14.124,12.983-16.449,21.904c-0.107,0.114-0.219,0.221-0.322,0.34c-2.836-8.376-5.685-17.481-2.915-25.879
				c2.965-8.99,12.783-15.168,22.171-13.952c-4.726-0.758-8.813-4.578-9.887-9.242c-1.074-4.665,0.929-9.887,4.848-12.636
				c4.973-3.488,11.771-2.77,17.53-0.84c5.759,1.931,11.239,4.934,17.269,5.665c-5.831-2.619-7.954-10.688-5.051-16.383
				c2.902-5.695,9.701-8.749,16.079-8.321C223.474,312.406,228.497,314.91,232.667,318.38z"/>
		</g>
		<path style="fill:none;stroke:#FFC366;stroke-width:1.0766;stroke-linecap:round;stroke-miterlimit:10;" d="M205.074,351.022
			c16.734-12.67,29.421-31.3,39.614-50.152"/>
	</g>
	<g>
		<g>
			<path style="fill:#FFC366;" d="M250.222,323.76c3.248-5.505,5.143-12.049,4-18.338c-1.143-6.289-5.764-12.136-11.995-13.56
				c-6.231-1.424-13.538,2.605-14.654,8.899c-0.764-6.026,0.81-12.073,1.276-18.129c0.466-6.056-0.498-12.823-5.095-16.794
				c-3.623-3.129-9.176-3.797-13.437-1.616c-4.261,2.181-6.967,7.076-6.548,11.845c-1.113-9.401-9.502-17.412-18.944-18.093
				c-8.82-0.635-16.953,4.351-24.384,9.146c5.016,2.54,7.56,8.206,9.127,13.606c1.567,5.4,2.641,11.171,6.117,15.59
				c3.476,4.419,10.427,6.784,14.788,3.235c-5.831,5.349-6.792,15.202-2.104,21.576c4.688,6.375,14.379,8.394,21.223,4.422
				c-3.244,3.124-1.312,9.079,2.541,11.411C226.146,345.438,243.128,335.971,250.222,323.76z"/>
			<path style="fill:#FFDB82;" d="M251.387,320.879c-17.164-3.654-31.595-11.847-44.524-24.286
				c-6.804-6.547-13.447-13.155-21.006-18.86c-7.136-5.386-16.039-10.526-25.257-10.603c-0.137-0.076-0.268-0.158-0.409-0.23
				c7.43-4.795,15.563-9.782,24.383-9.146c9.442,0.68,17.831,8.692,18.944,18.093c-0.419-4.768,2.287-9.664,6.548-11.845
				c4.261-2.181,9.815-1.513,13.437,1.616c4.597,3.97,5.561,10.738,5.095,16.794c-0.466,6.056-2.04,12.104-1.276,18.129
				c1.116-6.294,8.422-10.323,14.654-8.899c6.231,1.424,10.853,7.271,11.995,13.56C254.935,310.506,253.733,315.989,251.387,320.879
				z"/>
		</g>
		<path style="fill:none;stroke:#FFC366;stroke-width:1.0766;stroke-linecap:round;stroke-miterlimit:10;" d="M212.995,302.093
			c16.373,13.133,37.537,20.887,58.307,26.168"/>
	</g>
	<g>
		<g>
			<path style="fill:#FF9F89;" d="M617.594,189.253c-2.093-1.668-5.284-1.313-7.492,0.2c-1.513,1.037-2.641,2.504-3.563,4.107
				c-0.922-1.602-2.05-3.07-3.563-4.107c-2.208-1.513-5.398-1.868-7.492-0.2c-1.993,1.588-2.443,4.555-1.703,6.993
				c0.739,2.439,2.191,4.458,3.927,6.323c2.713,2.916,6.292,5.644,8.292,8.354v0.083c0-0.014-0.015-0.028,0-0.041
				c0.015,0.014,0,0.028,0,0.041v-0.083c4-2.71,6.118-5.438,8.831-8.354c1.736-1.866,3.581-3.884,4.32-6.323
				C619.891,193.808,619.587,190.841,617.594,189.253z"/>
			<path style="fill:#FFD9D1;" d="M586.501,175.383c-1.117-0.89-2.819-0.7-3.997,0.107c-0.807,0.553-1.409,1.336-1.901,2.191
				c-0.492-0.855-1.094-1.638-1.901-2.191c-1.178-0.807-2.88-0.996-3.997-0.107c-1.063,0.847-1.303,2.43-0.909,3.731
				c0.394,1.301,1.011,2.378,1.937,3.373c1.447,1.556,2.266,3.011,4.266,4.457v0.044c0-0.007-0.008-0.015,0-0.022
				c0.008,0.007,0,0.015,0,0.022v-0.044c3-1.446,3.422-2.901,4.869-4.457c0.926-0.995,1.989-2.072,2.384-3.373
				C587.647,177.812,587.565,176.23,586.501,175.383z"/>
		</g>
		<g>
			<path style="fill:#FB523A;" d="M640.198,420.427l0.841,8.033c0.094,2.868-2.156,5.269-5.024,5.363l-17.209,0.561
				c-1.505,0.049-2.596-1.42-2.113-2.846l0,0c0.278-0.822,1.021-1.397,1.886-1.46l1.565-0.081
				c5.375-0.279,10.733-4.217,11.617-9.526L640.198,420.427z"/>
			<path style="fill:#FFC0A9;" d="M650.737,316.582c-0.473,1.773-0.95,3.607-1.421,5.507c-0.891,3.474-1.818,7.138-2.678,10.936
				c-0.872,3.797-1.823,7.711-2.617,11.688c-0.398,1.972-0.799,3.959-1.202,5.954l-0.54,2.667c-0.092,0.416-0.155,1.004-0.234,1.498
				l-0.056,0.387l-0.007,0.048c-0.003,0.072,0.001-0.436-0.002-0.206l-0.006,0.066l-0.012,0.133l-0.054,0.534
				c-0.126,1.553,0.013,3.546,0.246,5.494c0.256,1.968,0.571,3.983,0.958,6.006c0.735,4.062,1.562,8.17,1.801,12.415
				c0.085,0.997,0.085,2.283,0.103,3.317l-0.048,1.426l-0.027,0.861l-0.046,0.736c-0.121,1.966-0.276,3.827-0.431,5.642
				c-0.295,3.623-0.75,7.007-1.121,10.128c-0.449,3.116-0.829,5.968-1.274,8.487c-0.404,2.522-0.828,4.714-1.171,6.519
				c-0.715,3.606-1.231,5.667-1.231,5.667c-0.399,1.577-1.718,2.842-3.429,3.08c-2.254,0.313-4.335-1.259-4.648-3.513
				c0,0-0.292-2.079-0.652-5.72c-0.166-1.818-0.381-4.026-0.561-6.552c-0.218-2.528-0.365-5.373-0.578-8.471
				c-0.141-3.094-0.374-6.443-0.515-9.945c-0.081-1.747-0.17-3.546-0.296-5.321c-0.067-0.873-0.135-1.755-0.203-2.646
				c-0.079-0.81-0.158-1.628-0.238-2.452c-0.349-3.508-0.63-7.362-1.068-11.376c-0.202-2.014-0.496-4.068-0.798-6.192
				c-0.314-2.144-0.712-4.268-1.033-6.858l-0.1-1.02l-0.024-0.256l-0.012-0.128c-0.005,0.197,0-0.342-0.002-0.303l-0.003-0.049
				l-0.028-0.389c-0.032-0.541-0.086-0.99-0.101-1.606l-0.087-3.521c-0.037-2.118-0.074-4.228-0.111-6.322
				c-0.019-4.148-0.164-8.226-0.23-12.161c-0.057-3.935-0.187-7.742-0.31-11.353c-0.026-0.96-0.056-1.905-0.088-2.837H650.737z"/>
			<g>
				<g>
					<g>
						<path style="fill:#FB523A;" d="M684.494,418.087l2.275,7.75c0.609,2.804-1.171,5.571-3.975,6.18l-16.826,3.653
							c-1.472,0.32-2.809-0.929-2.592-2.419l0,0c0.125-0.858,0.753-1.558,1.593-1.776l1.525-0.362
							c5.236-1.243,9.798-6.082,9.71-11.464L684.494,418.087z"/>
					</g>
					<g>
						<path style="fill:#FB523A;" d="M684.494,418.087l2.275,7.75c0.609,2.804-1.171,5.571-3.975,6.18l-16.826,3.653
							c-1.472,0.32-2.809-0.929-2.592-2.419l0,0c0.125-0.858,0.753-1.558,1.593-1.776l1.525-0.362
							c5.236-1.243,9.798-6.082,9.71-11.464L684.494,418.087z"/>
					</g>
				</g>
				<g>
					<path style="fill:#FFC0A9;" d="M684.508,407.796c-0.016-2.559-0.156-5.432-0.276-8.578c-0.197-3.136-0.36-6.547-0.722-10.164
						c-2.757-17.079-11.25-26.866-11.857-28.756c-0.58-1.874-1.28-3.792-1.404-5.346l-0.043-0.535l-0.011-0.133l-0.005-0.066
						c-0.018-0.228,0.22,0.26,0.21,0.189l0.084-0.056l0.029-0.395c-0.011-0.5-0.034-1.091-0.018-1.517l0.061-2.722
						c0.037-2.035,0.079-4.063,0.115-6.074c0.064-4.055,0.296-8.077,0.47-11.969c0.161-3.89,0.414-7.662,0.665-11.239
						c0.222-3.575,0.5-6.961,0.781-10.087c0.216-2.583,0.443-4.977,0.668-7.168c-2.484-13.074-6.072-25.804-17.249-34.351
						c-8.288,0.498-15.408,6.685-16.747,15.225c-0.394,2.513-0.25,4.986,0.347,7.302l0.079,0.285c0,0,0.552,2.102,1.518,5.78
						c0.928,3.608,2.224,8.732,3.623,14.891c0.721,3.078,1.479,6.412,2.226,9.943c0.772,3.529,1.586,7.251,2.351,11.111
						c0.774,3.858,1.652,7.844,2.418,11.921c0.413,2.053,0.83,4.121,1.248,6.198l0.72,3.447c0.125,0.604,0.259,1.035,0.388,1.562
						l0.098,0.378l0.012,0.047c-0.005-0.039,0.087,0.493,0.056,0.298l0.035,0.124l0.07,0.247l0.282,0.986
						c0.783,2.489,1.557,4.507,2.252,6.559c0.68,2.035,6.204,13.682,13.836,36.028c0.768,3.009,1.425,5.78,2.095,8.228
						c0.632,2.452,1.242,4.585,1.733,6.344c1.011,3.516,1.672,5.509,1.672,5.509c0.714,2.16,3.045,3.332,5.205,2.618
						c1.64-0.543,2.71-2.024,2.818-3.647c0,0,0.136-2.12,0.19-5.796C684.543,412.582,684.566,410.349,684.508,407.796z"/>
				</g>
			</g>
			<path style="fill:#193441;" d="M665.016,271.865c5.32,1.348,8.913,6.571,10.117,11.925c1.204,5.355,0.506,10.924,0.089,16.397
				c-0.971,12.723-0.389,25.563,1.731,38.146c0.389,2.309,0.739,4.97-0.798,6.736c-0.933,1.072-2.371,1.549-3.764,1.831
				c-5.601,1.132-11.363-0.154-17.023-0.941c-12.075-1.679-24.826,2.515-34.018-3.552c-1.171-0.773-1.888-2.077-1.86-3.48
				c0.306-15.533,8.883-41.18,13.845-65.926L665.016,271.865z"/>
			<path style="fill:#FFC0A9;" d="M655.658,207.095c0,0-0.076,0.35-0.22,1.007c-0.127,0.625-0.314,1.541-0.552,2.707
				c-0.495,2.376-1.13,5.853-1.882,10.141c-0.79,4.284-1.697,9.362-2.994,14.923c-0.638,2.785-1.421,5.681-2.389,8.687
				c-0.986,3.006-2.145,6.118-4.014,9.343c-0.938,1.607-2.079,3.268-3.648,4.874c-1.549,1.589-3.696,3.164-6.305,3.998l-0.242,0.079
				l-0.066,0.015l-0.131,0.03l-0.262,0.06l-0.524,0.119l-1.387,0.294c-0.874,0.158-1.691,0.281-2.516,0.373
				c-1.644,0.154-3.22,0.222-4.742,0.197c-3.045-0.072-5.845-0.377-8.446-0.731c-2.599-0.346-4.991-0.807-7.179-1.134
				c-2.185-0.371-4.168-0.631-5.909-0.881c-1.742-0.281-3.276,0.295-4.494,0.36c-1.224,0.087-2.15-0.077-2.797-0.343
				c-0.638-0.237-0.993-0.529-0.993-0.529l-0.207-0.17c-1.617-1.326-1.852-3.712-0.526-5.328c0.139-0.17,0.307-0.338,0.467-0.477
				c0,0,0.372-0.318,1.097-0.597c0.717-0.286,1.792-0.484,3.114-0.337c1.328,0.116,2.885,0.811,4.685,0.715
				c1.802-0.068,3.813-0.081,5.987-0.214c2.171-0.091,4.504-0.321,6.906-0.586c2.399-0.282,4.882-0.639,7.274-1.199
				c1.195-0.27,2.374-0.549,3.491-0.908c0.556-0.163,1.118-0.347,1.621-0.531l0.672-0.27l0.497-0.203l0.249-0.102l0.125-0.051
				l0.062-0.025c0.043-0.015-0.237,0.076-0.118,0.036l0.003-0.004c0.108-0.104,0.36-0.29,0.772-0.826
				c0.401-0.524,0.881-1.31,1.316-2.265c0.88-1.913,1.638-4.335,2.257-6.822c0.625-2.499,1.099-5.104,1.555-7.665
				c0.875-5.136,1.539-10.126,2.172-14.455c0.65-4.329,1.254-8.023,1.738-10.645c0.247-1.313,0.47-2.335,0.631-3.085
				c0.15-0.676,0.23-1.036,0.23-1.036c0.958-4.313,5.231-7.033,9.544-6.075s7.033,5.231,6.075,9.544L655.658,207.095z"/>
			<path style="fill:#FFC0A9;" d="M627.806,246.633c-0.394-0.018-0.674,0.016-0.902,0.059
				C627.205,246.673,627.503,246.653,627.806,246.633z"/>
			<path style="fill:#FB523A;" d="M648.467,222.473c0.99,0.611,1.985,1.214,2.976,1.822c1.472-4.786,2.671-9.268,3.664-13.2
				c1.133-4.626,1.991-8.491,2.574-11.212c0.54-2.76,0.848-4.337,0.848-4.337c0.9-4.538-2.054-8.925-6.592-9.825
				s-8.947,2.049-9.847,6.588l-0.035,0.178c0,0-0.292,1.47-0.802,4.042c-0.506,2.604-1.259,6.334-2.257,10.778
				c-0.531,2.433-1.132,5.087-1.798,7.878C640.662,217.963,644.726,220.163,648.467,222.473z"/>
			<path style="fill:#FB523A;" d="M676.126,279.083c-15.162-0.016-29.959,4.813-44.032-5.635
				c4.489-14.582,6.338-29.346,6.498-30.467c1.185-8.342,1.587-16.793,0.821-25.183c-0.206-2.259-0.057-4.461,0.553-5.791
				c0,0,9.075-15.345,4.14-22.414c1.897-3.275,5.722-4.974,12.926-3.497l9.724-0.179c7.159,1.669,9.902,2.28,14.586,6.015
				c5.007,3.992,4.892,10.316,1.645,22.754c-3.247,12.438-0.892,7.783-6.626,25.382
				C672.001,253.446,679.368,261.977,676.126,279.083z"/>
			<g>
				<defs>
					<path id="XMLID_35_" d="M627.555,163.496c-2.394-8.922,1.254-15.483,10.95-19.335c5.779-2.295,12.356-1.256,17.392,2.392
						l0.727,0.527c4.164,3.015,7.451,9.195,7.94,14.312l-2.394,12.861l6.294,11.83c0,0-9.133,8.576-14.629,3.242l-2.669-7.749
						c0,0-4.571,4.408-9.473,3.882C639.128,185.184,632.442,181.704,627.555,163.496z"/>
				</defs>
				<use xlink:href="#XMLID_35_"  style="overflow:visible;fill:#FFC0A9;"/>
				<clipPath id="XMLID_00000121978346684683531160000008680826555444529296_">
					<use xlink:href="#XMLID_35_"  style="overflow:visible;"/>
				</clipPath>
			</g>
			
				<polyline style="fill:none;stroke:#6D8CB3;stroke-width:3;stroke-linecap:round;stroke-linejoin:round;stroke-miterlimit:10;" points="
				624.638,252.064 582.525,255.107 565.205,225.5 			"/>
			<path style="fill:#FFC0A9;" d="M658.186,232.747c-0.109,0.377-0.216,0.753-0.328,1.132c-0.865,2.914-1.793,5.894-2.861,8.782
				c-1.067,2.863-2.258,5.737-3.544,7.969c-0.532,0.953-1.163,1.783-1.459,2.133c-0.136-0.007-0.311-0.025-0.466-0.036
				c-0.259-0.007-0.569-0.077-0.857-0.113c-0.593-0.105-1.234-0.219-1.895-0.384c-1.322-0.324-2.72-0.768-4.147-1.221
				c-2.855-0.937-5.755-2.058-8.6-3.052c-2.843-1.005-5.646-1.887-8.308-2.594c-2.664-0.691-5.21-1.191-7.537-1.373
				c-2.295-0.235-4.379-0.909-6.178-0.804c-1.786,0.069-3.152,0.571-3.987,1.089c-0.843,0.518-1.212,0.95-1.212,0.95
				c-0.221,0.26-0.419,0.569-0.563,0.898c-0.794,1.819,0.036,3.937,1.855,4.732l0.703,0.307c0,0,0.443,0.194,1.124,0.266
				c0.695,0.103,1.614,0.12,2.778-0.096c0.296-0.034,0.606-0.104,0.936-0.188c0.338-0.068,0.692-0.139,1.061-0.213
				c0.75-0.137,1.596-0.207,2.481-0.026c1.76,0.398,3.751,1.043,5.872,2.053c2.133,0.972,4.382,2.291,6.791,3.794
				c2.416,1.496,4.974,3.188,7.885,4.911c1.458,0.869,3.025,1.708,4.778,2.489c0.876,0.389,1.801,0.776,2.804,1.096
				c0.515,0.156,0.998,0.329,1.559,0.457c0.557,0.135,1.04,0.276,1.794,0.386l1.046,0.156l0.672,0.079l0.313,0.036l0.156,0.018
				l0.039,0.005c-0.239-0.005,0.362,0.01,0.35,0.009l0.23-0.002c0.614-0.005,1.219-0.067,1.789-0.173
				c2.321-0.439,3.958-1.44,5.194-2.346c2.43-1.872,3.767-3.683,5.013-5.414c2.388-3.466,4.015-6.787,5.493-10.079
				c1.378-3.106,2.576-6.145,3.646-9.106C667.427,238.288,662.515,235.908,658.186,232.747z M651.479,252.726l-0.039,0.001
				l-0.157,0.004l-0.314,0.008l-0.355,0.007c0.155-0.02,0.334-0.035,0.523-0.032l0.073,0.004
				C651.169,252.718,651.745,252.732,651.479,252.726z"/>
			<path style="fill:#193441;" d="M682.209,140.157c-0.229-2.085-0.961-4.077-1.686-6.045c-0.377-1.024-0.905-2.188-1.966-2.443
				c-1.477-0.356-2.582,1.243-3.563,2.403c-2.502,2.959-7.095,3.905-10.562,2.176c-2.828-1.41-4.814-4.306-7.826-5.262
				c-2.597-0.824-5.541,0.027-7.631,1.776c-1.631,1.365-2.784,3.212-3.559,5.205c-2.926-0.042-5.998,0.581-9.492,2.335
				c-5.057,2.538-10.168,6.495-10.155,12.153c0,0-0.768,4.213,2.598,7.596c2.524,2.537,5.349,4.716,8.487,6.436
				c3.138,1.72,6.383,3.434,8.755,6.113c0.671,0.758,1.367,1.646,2.37,1.785c1.681,0.232,2.819-1.863,2.595-3.545
				c-0.225-1.682-1.237-3.162-1.596-4.821c-0.359-1.658,0.363-3.833,2.051-4.01c1.255-0.131,2.29,0.897,3.194,1.778
				c2.582,2.517,5.046,5.508,8.444,6.713c1.43-2.972,3.448-7.063,4.082-10.3c0.634-3.237,0.505-6.71-0.93-9.679
				c-0.242-0.5-0.518-0.994-0.812-1.484c3.687,1.006,7.435,1.376,11.061,0.283c1.874-0.565,3.689-1.561,4.829-3.153
				C682.117,144.462,682.438,142.242,682.209,140.157z"/>
			<path style="opacity:0.7;fill:#FF9F89;" d="M651.165,181.577L655,178c0,0-1.667,4.5-3,5.833L651.165,181.577z"/>
		</g>
	</g>
	<path style="fill:#D3E3F8;" d="M515.562,81.487c0.167-0.205,0.342-0.406,0.53-0.6c0.682-0.537,1.364-1.073,2.046-1.61
		c1.476-0.858,3.068-1.303,4.774-1.334c1.29-0.067,2.503,0.179,3.639,0.736c1.109,0.327,2.082,0.903,2.933,1.698
		c0.013-0.11,0.025-0.221,0.038-0.331c0.322-1.289,0.945-2.412,1.869-3.37c0.518-0.408,1.036-0.815,1.554-1.223
		c1.121-0.652,2.33-0.989,3.626-1.013c0.98-0.051,1.901,0.136,2.763,0.559c0.353,0.104,0.682,0.25,1,0.416
		c0.625-4.129,4.311-7.859,8.667-7.695c4.803,0.181,8.959,3.786,9.033,8.77c0.014,0.942-0.149,1.88-0.447,2.779
		c0.167-0.014,0.331-0.037,0.501-0.04c0.952-0.049,1.847,0.132,2.686,0.543c0.925,0.273,1.728,0.766,2.41,1.48
		c0.655,0.59,1.127,1.287,1.437,2.081L515.562,81.487z"/>
	<path style="fill:#D3E3F8;" d="M125.931,74.472l-26.302-0.991c0.88-2.697,3.39-4.912,6.292-4.802
		c1.228,0.046,2.397,0.4,3.412,0.988c0.037-0.335,0.075-0.669,0.113-1.004c0.192-0.499,0.383-0.998,0.575-1.497
		c0.325-0.446,0.649-0.891,0.974-1.336c0.429-0.343,0.858-0.685,1.286-1.028c0.485-0.209,0.971-0.418,1.456-0.628
		c0.77-0.247,1.544-0.293,2.319-0.137c0.536-0.007,1.04,0.12,1.512,0.38c0.787,0.236,1.471,0.662,2.051,1.279
		c0.029,0.034,0.057,0.067,0.086,0.101c0.611,0.559,1.041,1.226,1.291,2.001c0.363,0.699,0.535,1.452,0.517,2.258
		c-0.039,0.346-0.078,0.693-0.117,1.039C123.394,71.406,125.123,72.665,125.931,74.472z"/>
	<path style="fill:#D3E3F8;" d="M687.392,82.46c-0.774-2.739-2.999-5.004-6.693-5.004c-1.701,0-3.088,0.485-4.17,1.273
		c-0.312-0.651-0.708-1.258-1.2-1.817c-0.526-0.453-1.051-0.906-1.577-1.359c-1.147-0.736-2.398-1.143-3.753-1.22
		c-0.967-0.088-1.886,0.06-2.76,0.425c-0.048-3.635-3.048-7.224-6.793-7.224c-3.876,0-7.335,2.818-7.545,6.89
		c-0.007,0.138-0.001,0.153,0.001,0.291c-1.071-0.963-2.427-1.703-3.915-1.703h-0.236c-3.567,0-6.751,2.656-6.945,6.403
		c-0.029,0.557,0.025,1.155,0.142,1.695c-0.057,0.033-0.11,0.103-0.166,0.137c-0.704-0.542-1.541-0.918-2.433-0.918
		c-1.184,0-2.324,0.338-3.221,1.157c-0.384,0.325-0.676,0.583-0.885,0.973H687.392z"/>
	<g>
		<g>
			<path style="fill:#193441;" d="M552.483,198.436v220.758c0,8.674-7.031,15.705-15.705,15.705H213.223
				c-8.674,0-15.705-7.032-15.705-15.705V198.436c0-8.674,7.032-15.705,15.705-15.705h323.554
				C545.451,182.731,552.483,189.762,552.483,198.436z"/>
			<g>
				<defs>
					<rect id="XMLID_34_" x="223.699" y="191.741" width="282.45" height="234.149"/>
				</defs>
				<use xlink:href="#XMLID_34_"  style="overflow:visible;fill:#FFFFFF;"/>
				<clipPath id="XMLID_00000007428227494192624590000006910887278436627075_">
					<use xlink:href="#XMLID_34_"  style="overflow:visible;"/>
				</clipPath>
			</g>
			<rect x="223.698" y="191.24" style="fill:#B9D3F4;" width="282.633" height="25.759"/>
			<rect x="240.198" y="200.611" style="fill:#FFFFFF;" width="150.802" height="8.015"/>
			
				<ellipse transform="matrix(0.1609 -0.987 0.987 0.1609 138.3144 780.3265)" style="fill:#FFFFFF;" cx="528.097" cy="308.815" rx="15.177" ry="15.177"/>
			<path style="fill:#C9E1FF;" d="M537.509,308.815c0,5.198-4.214,9.412-9.412,9.412s-9.412-4.214-9.412-9.412
				c0-5.198,4.214-9.412,9.412-9.412S537.509,303.617,537.509,308.815z"/>
			<path style="fill:#FFFFFF;" d="M213.358,296.295v25.039c0,1.981-1.606,3.587-3.587,3.587l0,0c-1.981,0-3.587-1.606-3.587-3.587
				v-25.039c0-1.981,1.606-3.587,3.587-3.587l0,0C211.752,292.709,213.358,294.315,213.358,296.295z"/>
		</g>
		<g>
			<defs>
				<rect id="XMLID_39_" x="240.011" y="396.95" width="151.989" height="12.05"/>
			</defs>
			<clipPath id="XMLID_00000018940812315318196620000009527320088158738872_">
				<use xlink:href="#XMLID_39_"  style="overflow:visible;"/>
			</clipPath>
			
				<line style="clip-path:url(#XMLID_00000018940812315318196620000009527320088158738872_);fill:none;stroke:#FFC0AD;stroke-width:0.75;stroke-miterlimit:10;" x1="222.384" y1="403.715" x2="396.276" y2="367.793"/>
			
				<line style="clip-path:url(#XMLID_00000018940812315318196620000009527320088158738872_);fill:none;stroke:#FFC0AD;stroke-width:0.75;stroke-miterlimit:10;" x1="222.384" y1="408.279" x2="396.276" y2="372.358"/>
			
				<line style="clip-path:url(#XMLID_00000018940812315318196620000009527320088158738872_);fill:none;stroke:#FFC0AD;stroke-width:0.75;stroke-miterlimit:10;" x1="222.384" y1="412.843" x2="396.276" y2="376.922"/>
			
				<line style="clip-path:url(#XMLID_00000018940812315318196620000009527320088158738872_);fill:none;stroke:#FFC0AD;stroke-width:0.75;stroke-miterlimit:10;" x1="222.384" y1="417.407" x2="396.276" y2="381.486"/>
			
				<line style="clip-path:url(#XMLID_00000018940812315318196620000009527320088158738872_);fill:none;stroke:#FFC0AD;stroke-width:0.75;stroke-miterlimit:10;" x1="222.384" y1="421.972" x2="396.276" y2="386.05"/>
			
				<line style="clip-path:url(#XMLID_00000018940812315318196620000009527320088158738872_);fill:none;stroke:#FFC0AD;stroke-width:0.75;stroke-miterlimit:10;" x1="222.384" y1="426.536" x2="396.276" y2="390.615"/>
			
				<line style="clip-path:url(#XMLID_00000018940812315318196620000009527320088158738872_);fill:none;stroke:#FFC0AD;stroke-width:0.75;stroke-miterlimit:10;" x1="222.384" y1="431.1" x2="396.276" y2="395.179"/>
			
				<line style="clip-path:url(#XMLID_00000018940812315318196620000009527320088158738872_);fill:none;stroke:#FFC0AD;stroke-width:0.75;stroke-miterlimit:10;" x1="222.384" y1="435.664" x2="396.276" y2="399.743"/>
			
				<line style="clip-path:url(#XMLID_00000018940812315318196620000009527320088158738872_);fill:none;stroke:#FFC0AD;stroke-width:0.75;stroke-miterlimit:10;" x1="222.384" y1="440.229" x2="396.276" y2="404.307"/>
			
				<line style="clip-path:url(#XMLID_00000018940812315318196620000009527320088158738872_);fill:none;stroke:#FFC0AD;stroke-width:0.75;stroke-miterlimit:10;" x1="222.384" y1="444.793" x2="396.276" y2="408.872"/>
			
				<line style="clip-path:url(#XMLID_00000018940812315318196620000009527320088158738872_);fill:none;stroke:#FFC0AD;stroke-width:0.75;stroke-miterlimit:10;" x1="222.384" y1="449.357" x2="396.276" y2="413.436"/>
			
				<line style="clip-path:url(#XMLID_00000018940812315318196620000009527320088158738872_);fill:none;stroke:#FFC0AD;stroke-width:0.75;stroke-miterlimit:10;" x1="222.384" y1="453.922" x2="396.276" y2="418"/>
			
				<line style="clip-path:url(#XMLID_00000018940812315318196620000009527320088158738872_);fill:none;stroke:#FFC0AD;stroke-width:0.75;stroke-miterlimit:10;" x1="222.384" y1="458.486" x2="396.276" y2="422.565"/>
			
				<line style="clip-path:url(#XMLID_00000018940812315318196620000009527320088158738872_);fill:none;stroke:#FFC0AD;stroke-width:0.75;stroke-miterlimit:10;" x1="222.384" y1="463.05" x2="396.276" y2="427.129"/>
			
				<line style="clip-path:url(#XMLID_00000018940812315318196620000009527320088158738872_);fill:none;stroke:#FFC0AD;stroke-width:0.75;stroke-miterlimit:10;" x1="222.384" y1="467.614" x2="396.276" y2="431.693"/>
			
				<line style="clip-path:url(#XMLID_00000018940812315318196620000009527320088158738872_);fill:none;stroke:#FFC0AD;stroke-width:0.75;stroke-miterlimit:10;" x1="222.384" y1="472.179" x2="396.276" y2="436.258"/>
			
				<line style="clip-path:url(#XMLID_00000018940812315318196620000009527320088158738872_);fill:none;stroke:#FFC0AD;stroke-width:0.75;stroke-miterlimit:10;" x1="222.384" y1="476.743" x2="396.276" y2="440.822"/>
		</g>
		
			<rect id="XMLID_17_" x="240.141" y="383.086" transform="matrix(-1 -1.224647e-16 1.224647e-16 -1 582.2602 773.5021)" style="fill:#FFE79F;" width="101.978" height="7.33"/>
		<g>
			<defs>
				<polygon id="SVGID_1_" points="398,369 240.5,369 240,234 397.5,234 				"/>
			</defs>
			<use xlink:href="#SVGID_1_"  style="overflow:visible;fill:#FFF0C6;"/>
			<clipPath id="SVGID_00000029740168455453639450000010253000716672456114_">
				<use xlink:href="#SVGID_1_"  style="overflow:visible;"/>
			</clipPath>
			<path style="clip-path:url(#SVGID_00000029740168455453639450000010253000716672456114_);fill:#FFC366;" d="M249.236,326.572
				c6.588-3.752,15.472-5.79,21.341-0.99c2.231,1.825,3.711,4.42,5.86,6.34c7.288,6.515,18.714,3.132,27.633-0.867
				c8.92-4,19.789-8.173,27.851-2.645c5.365,3.678,8.984,11.365,15.472,10.893c5.049-0.368,8.017-5.594,11.621-9.15
				c9.942-9.806,27.878-6.725,37.377,3.51c9.499,10.235,12.078,25.17,11.634,39.127c-54.69,4.073-109.63,4.779-164.407,2.113
				c-3.951-0.192-8.187-0.506-11.276-2.977c-4.874-3.899-4.783-11.288-3.578-17.413c0.959-4.876,0.235-14.877,2.729-17.973
				C234.084,333.324,245.312,328.807,249.236,326.572z"/>
			<g style="clip-path:url(#SVGID_00000029740168455453639450000010253000716672456114_);">
				<g>
					<circle style="fill:#193441;" cx="315.088" cy="258.227" r="12.676"/>
				</g>
				<g>
					<path style="fill:#B56B1F;" d="M348.233,326.923l0.139,0.37c0.123,0.354,0.255,0.778,0.36,1.171
						c0.13,0.485,0.152,0.633,0.194,0.83l0.12,0.601c0.125,0.711,0.221,1.362,0.299,1.968c0.153,1.209,0.249,2.352,0.336,3.463
						c0.174,2.229,0.293,4.384,0.4,6.534c0.207,4.293,0.259,8.535,0.356,12.769c0.19,8.458,0.195,16.884,0.273,25.236l-0.537-2.304
						c1.253,3.485,2.503,6.972,3.61,10.519c0.581,1.762,1.08,3.559,1.616,5.34l1.583,5.355c1.046,3.574,2.098,7.145,3.308,10.648
						c0.309,0.873,0.563,1.77,0.917,2.623c0.369,0.847,0.897,1.627,1.429,2.404c0.523,0.781,0.987,1.588,1.283,2.467
						c0.273,0.888,0.467,1.811,0.259,2.906c-0.369,1.944-2.245,3.221-4.189,2.852c-0.464-0.088-0.9-0.269-1.274-0.509
						c-0.936-0.604-1.471-1.38-1.927-2.19c-0.432-0.82-0.697-1.712-0.903-2.63c-0.197-0.921-0.397-1.841-0.757-2.692
						c-0.373-0.846-0.848-1.647-1.268-2.473c-1.704-3.292-3.565-6.516-5.433-9.737l-2.788-4.838
						c-0.921-1.616-1.878-3.217-2.754-4.853c-1.806-3.248-3.47-6.556-5.131-9.866c-0.264-0.526-0.419-1.078-0.474-1.631
						l-0.063-0.674c-0.407-4.245-0.757-8.47-1.068-12.685c-0.338-4.214-0.611-8.42-0.885-12.611l-0.889-12.491
						c-0.145-2.058-0.301-4.11-0.495-6.079l-0.319-2.825c-0.055-0.44-0.113-0.831-0.168-1.159l-0.035-0.173
						c-0.009-0.061-0.036-0.172,0.021,0.059c0.037,0.138,0.104,0.306,0.158,0.406l-0.137-0.37l-0.066-0.178
						c-1.525-4.117,0.576-8.692,4.694-10.217C342.143,320.731,346.708,322.806,348.233,326.923z"/>
				</g>
				<g>
					<path style="fill:#B56B1F;" d="M298.495,332.534l-0.169,0.555c-0.025,0.117-0.018,0.154-0.033,0.233
						c-0.027,0.171-0.03,0.161-0.143,0.628l-0.559,2.188l-1.122,4.46c-0.747,2.989-1.578,5.965-2.356,8.957
						c-1.556,5.982-3.225,11.951-4.94,17.9l-0.189,0.672c-1.66,4.222-3.323,8.443-5.132,12.615c-0.877,2.095-1.838,4.162-2.76,6.242
						l-2.795,6.23c-1.873,4.15-3.74,8.302-5.443,12.509c-0.419,1.054-0.896,2.089-1.268,3.159c-0.358,1.075-0.551,2.205-0.741,3.337
						c-0.199,1.129-0.458,2.236-0.891,3.286c-0.456,1.041-0.994,2.055-1.947,2.93c-1.38,1.267-3.525,1.175-4.792-0.205
						c-0.453-0.494-0.732-1.082-0.84-1.697c-0.228-1.272-0.041-2.405,0.228-3.51c0.292-1.097,0.757-2.135,1.283-3.154
						c0.535-1.015,1.067-2.031,1.434-3.103c0.353-1.076,0.601-2.188,0.907-3.281c1.195-4.379,2.227-8.813,3.253-13.249l1.553-6.649
						c0.527-2.213,1.015-4.44,1.588-6.637c1.089-4.415,2.326-8.78,3.564-13.144l-0.189,0.671c1.02-6.13,2.101-12.237,3.319-18.325
						c0.61-3.044,1.174-6.1,1.837-9.141l1.018-4.579l0.539-2.324c0.145-0.657,0.722-2.66,0.863-3.066
						c1.44-4.143,5.966-6.333,10.109-4.893c4.04,1.405,6.224,5.744,4.993,9.8L298.495,332.534z"/>
				</g>
				<g>
					<path style="fill:#B56B1F;" d="M336.692,315.106c-12.418-0.375-11.299-10.932-11.299-10.932l-8.306-0.257l-8.306,0.257
						c0,0,1.119,10.556-11.299,10.932c-4.035,0.122-12.133,13.229-12.133,13.229h56.943
						C342.293,328.336,338.55,315.162,336.692,315.106z"/>
				</g>
				<g>
					<path style="fill:#885017;" d="M308.385,307.463c-0.24,0.984-0.621,2.078-1.236,3.129c3.889,8.435,14.666,9.506,19.508-0.579
						c-0.371-0.623-0.64-1.585-0.832-2.55H308.385z"/>
				</g>
				<g>
					<path style="fill:#B56B1F;" d="M297.206,277.99c1.146-12.214,10.082-19.225,18.874-19.083
						c8.792,0.14,17.554,7.435,18.403,19.681c0.497,7.173-1.064,14.904-2.19,19.348c-0.669,2.644-1.921,5.048-3.657,6.945
						c-3.978,4.349-9.147,7.818-13.209,7.752c-4.063-0.065-9.144-3.697-13.016-8.173c-1.689-1.953-2.882-4.395-3.487-7.06
						C297.909,292.922,296.535,285.145,297.206,277.99z"/>
				</g>
				<path style="fill:#FFFFFF;" d="M278.299,340.799c3.201-11.602,2.441-16.391,7.683-21.544c5.242-5.153,13.891-4.318,13.891-4.318
					s3.495,9.839,16.243,10c12.748-0.161,16.243-10,16.243-10s8.649-0.835,13.891,4.318c5.242,5.153,4.616,9.951,7.817,21.553
					l-13.223,5.91c0,0-3.243,21.788-2.069,30.063c0,0-8.785,6.62-22.658,6.62c-13.873,0-25.747-4.815-25.747-4.815
					c1.173-8.275,1.019-31.868,1.019-31.868L278.299,340.799z"/>
				<g>
					<path style="fill:#91BAEE;" d="M341.352,390.559c-0.868,0-1.572-0.704-1.572-1.572c0-65.546-6.896-74.248-6.966-74.307
						c-0.666-0.557-0.755-1.548-0.199-2.215c0.557-0.666,1.548-0.755,2.215-0.199c0.828,0.692,8.094,8.723,8.094,76.72
						C342.924,389.855,342.221,390.559,341.352,390.559z"/>
				</g>
				<g>
					<g>
						<path style="fill:#193441;" d="M311.683,273.264c2.725,0.763,5.647,0.363,8.426,0.897c3.496,0.673,6.586,2.811,8.945,5.476
							c2.359,2.666,4.057,5.846,5.573,9.068c1.037,0.32,2.176-0.339,2.75-1.259c0.575-0.921,0.711-2.04,0.809-3.121
							c0.474-5.229,0.364-10.58-1.114-15.618c-1.478-5.038-4.423-9.764-8.773-12.705c-4.349-2.941-10.177-3.881-14.989-1.782
							C306.16,257.34,301.613,270.444,311.683,273.264z"/>
					</g>
					<g>
						<path style="fill:#193441;" d="M311.683,273.264c2.725,0.763,5.647,0.363,8.426,0.897c3.496,0.673,6.586,2.811,8.945,5.476
							c2.359,2.666,4.057,5.846,5.573,9.068c1.037,0.32,2.176-0.339,2.75-1.259c0.575-0.921,0.711-2.04,0.809-3.121
							c0.474-5.229,0.364-10.58-1.114-15.618c-1.478-5.038-4.423-9.764-8.773-12.705c-4.349-2.941-10.177-3.881-14.989-1.782
							C306.16,257.34,301.613,270.444,311.683,273.264z"/>
					</g>
				</g>
				<g>
					<g>
						<path style="fill:#193441;" d="M309.363,266.418c-0.993,3.661-3.649,6.6-6.179,9.427c-2.529,2.828-5.107,5.871-5.875,9.587
							c-0.202,0.977-0.288,2.019-0.84,2.849c-0.553,0.831-1.8,1.312-2.562,0.668c-0.439-0.371-0.576-0.98-0.683-1.544
							c-1.206-6.34-1.827-13.021,0.21-19.144c1.484-4.463,4.993-9.391,9.62-11.001C308.417,255.394,310.484,262.281,309.363,266.418
							z"/>
					</g>
					<g>
						<path style="fill:#193441;" d="M309.363,266.418c-0.993,3.661-3.649,6.6-6.179,9.427c-2.529,2.828-5.107,5.871-5.875,9.587
							c-0.202,0.977-0.288,2.019-0.84,2.849c-0.553,0.831-1.8,1.312-2.562,0.668c-0.439-0.371-0.576-0.98-0.683-1.544
							c-1.206-6.34-1.827-13.021,0.21-19.144c1.484-4.463,4.993-9.391,9.62-11.001C308.417,255.394,310.484,262.281,309.363,266.418
							z"/>
					</g>
				</g>
			</g>
		</g>
		<g>
			<g>
				<defs>
					<polygon id="XMLID_26_" points="489.624,266.625 458.999,266.5 458.999,248.45 489.624,248.575 					"/>
				</defs>
				<clipPath id="XMLID_00000110464690722643836990000012875930889955373212_">
					<use xlink:href="#XMLID_26_"  style="overflow:visible;"/>
				</clipPath>
				
					<line style="clip-path:url(#XMLID_00000110464690722643836990000012875930889955373212_);fill:none;stroke:#FFC0AD;stroke-width:0.75;stroke-miterlimit:10;" x1="319.384" y1="255.214" x2="493.276" y2="219.293"/>
				
					<line style="clip-path:url(#XMLID_00000110464690722643836990000012875930889955373212_);fill:none;stroke:#FFC0AD;stroke-width:0.75;stroke-miterlimit:10;" x1="319.384" y1="259.779" x2="493.276" y2="223.857"/>
				
					<line style="clip-path:url(#XMLID_00000110464690722643836990000012875930889955373212_);fill:none;stroke:#FFC0AD;stroke-width:0.75;stroke-miterlimit:10;" x1="319.384" y1="264.343" x2="493.276" y2="228.422"/>
				
					<line style="clip-path:url(#XMLID_00000110464690722643836990000012875930889955373212_);fill:none;stroke:#FFC0AD;stroke-width:0.75;stroke-miterlimit:10;" x1="319.384" y1="268.907" x2="493.276" y2="232.986"/>
				
					<line style="clip-path:url(#XMLID_00000110464690722643836990000012875930889955373212_);fill:none;stroke:#FFC0AD;stroke-width:0.75;stroke-miterlimit:10;" x1="319.384" y1="273.472" x2="493.276" y2="237.55"/>
				
					<line style="clip-path:url(#XMLID_00000110464690722643836990000012875930889955373212_);fill:none;stroke:#FFC0AD;stroke-width:0.75;stroke-miterlimit:10;" x1="319.384" y1="278.036" x2="493.276" y2="242.115"/>
				
					<line style="clip-path:url(#XMLID_00000110464690722643836990000012875930889955373212_);fill:none;stroke:#FFC0AD;stroke-width:0.75;stroke-miterlimit:10;" x1="319.384" y1="282.6" x2="493.276" y2="246.679"/>
				
					<line style="clip-path:url(#XMLID_00000110464690722643836990000012875930889955373212_);fill:none;stroke:#FFC0AD;stroke-width:0.75;stroke-miterlimit:10;" x1="319.384" y1="287.164" x2="493.276" y2="251.243"/>
				
					<line style="clip-path:url(#XMLID_00000110464690722643836990000012875930889955373212_);fill:none;stroke:#FFC0AD;stroke-width:0.75;stroke-miterlimit:10;" x1="319.384" y1="291.729" x2="493.276" y2="255.807"/>
				
					<line style="clip-path:url(#XMLID_00000110464690722643836990000012875930889955373212_);fill:none;stroke:#FFC0AD;stroke-width:0.75;stroke-miterlimit:10;" x1="319.384" y1="296.293" x2="493.276" y2="260.372"/>
				
					<line style="clip-path:url(#XMLID_00000110464690722643836990000012875930889955373212_);fill:none;stroke:#FFC0AD;stroke-width:0.75;stroke-miterlimit:10;" x1="319.384" y1="300.857" x2="493.276" y2="264.936"/>
				
					<line style="clip-path:url(#XMLID_00000110464690722643836990000012875930889955373212_);fill:none;stroke:#FFC0AD;stroke-width:0.75;stroke-miterlimit:10;" x1="319.384" y1="305.422" x2="493.276" y2="269.5"/>
				
					<line style="clip-path:url(#XMLID_00000110464690722643836990000012875930889955373212_);fill:none;stroke:#FFC0AD;stroke-width:0.75;stroke-miterlimit:10;" x1="319.384" y1="309.986" x2="493.276" y2="274.065"/>
				
					<line style="clip-path:url(#XMLID_00000110464690722643836990000012875930889955373212_);fill:none;stroke:#FFC0AD;stroke-width:0.75;stroke-miterlimit:10;" x1="319.384" y1="314.55" x2="493.276" y2="278.629"/>
				
					<line style="clip-path:url(#XMLID_00000110464690722643836990000012875930889955373212_);fill:none;stroke:#FFC0AD;stroke-width:0.75;stroke-miterlimit:10;" x1="319.384" y1="319.114" x2="493.276" y2="283.193"/>
				
					<line style="clip-path:url(#XMLID_00000110464690722643836990000012875930889955373212_);fill:none;stroke:#FFC0AD;stroke-width:0.75;stroke-miterlimit:10;" x1="319.384" y1="323.679" x2="493.276" y2="287.758"/>
				
					<line style="clip-path:url(#XMLID_00000110464690722643836990000012875930889955373212_);fill:none;stroke:#FFC0AD;stroke-width:0.75;stroke-miterlimit:10;" x1="319.384" y1="328.243" x2="493.276" y2="292.322"/>
			</g>
			
				<rect id="XMLID_38_" x="458.999" y="233.919" transform="matrix(-1 -1.224647e-16 1.224647e-16 -1 948.499 475.1687)" style="fill:#FFDB82;" width="30.5" height="7.33"/>
			<rect x="411" y="234" style="fill:#FFE5E1;" width="43" height="33"/>
		</g>
		<g>
			<g>
				<defs>
					<polygon id="XMLID_28_" points="489.624,314.125 458.999,314 458.999,295.95 489.624,296.075 					"/>
				</defs>
				<clipPath id="XMLID_00000148642128456288795710000010536761847435992238_">
					<use xlink:href="#XMLID_28_"  style="overflow:visible;"/>
				</clipPath>
				
					<line style="clip-path:url(#XMLID_00000148642128456288795710000010536761847435992238_);fill:none;stroke:#FFC0AD;stroke-width:0.75;stroke-miterlimit:10;" x1="319.384" y1="302.715" x2="493.276" y2="266.793"/>
				
					<line style="clip-path:url(#XMLID_00000148642128456288795710000010536761847435992238_);fill:none;stroke:#FFC0AD;stroke-width:0.75;stroke-miterlimit:10;" x1="319.384" y1="307.279" x2="493.276" y2="271.358"/>
				
					<line style="clip-path:url(#XMLID_00000148642128456288795710000010536761847435992238_);fill:none;stroke:#FFC0AD;stroke-width:0.75;stroke-miterlimit:10;" x1="319.384" y1="311.843" x2="493.276" y2="275.922"/>
				
					<line style="clip-path:url(#XMLID_00000148642128456288795710000010536761847435992238_);fill:none;stroke:#FFC0AD;stroke-width:0.75;stroke-miterlimit:10;" x1="319.384" y1="316.407" x2="493.276" y2="280.486"/>
				
					<line style="clip-path:url(#XMLID_00000148642128456288795710000010536761847435992238_);fill:none;stroke:#FFC0AD;stroke-width:0.75;stroke-miterlimit:10;" x1="319.384" y1="320.972" x2="493.276" y2="285.05"/>
				
					<line style="clip-path:url(#XMLID_00000148642128456288795710000010536761847435992238_);fill:none;stroke:#FFC0AD;stroke-width:0.75;stroke-miterlimit:10;" x1="319.384" y1="325.536" x2="493.276" y2="289.615"/>
				
					<line style="clip-path:url(#XMLID_00000148642128456288795710000010536761847435992238_);fill:none;stroke:#FFC0AD;stroke-width:0.75;stroke-miterlimit:10;" x1="319.384" y1="330.1" x2="493.276" y2="294.179"/>
				
					<line style="clip-path:url(#XMLID_00000148642128456288795710000010536761847435992238_);fill:none;stroke:#FFC0AD;stroke-width:0.75;stroke-miterlimit:10;" x1="319.384" y1="334.664" x2="493.276" y2="298.743"/>
				
					<line style="clip-path:url(#XMLID_00000148642128456288795710000010536761847435992238_);fill:none;stroke:#FFC0AD;stroke-width:0.75;stroke-miterlimit:10;" x1="319.384" y1="339.229" x2="493.276" y2="303.307"/>
				
					<line style="clip-path:url(#XMLID_00000148642128456288795710000010536761847435992238_);fill:none;stroke:#FFC0AD;stroke-width:0.75;stroke-miterlimit:10;" x1="319.384" y1="343.793" x2="493.276" y2="307.872"/>
				
					<line style="clip-path:url(#XMLID_00000148642128456288795710000010536761847435992238_);fill:none;stroke:#FFC0AD;stroke-width:0.75;stroke-miterlimit:10;" x1="319.384" y1="348.357" x2="493.276" y2="312.436"/>
				
					<line style="clip-path:url(#XMLID_00000148642128456288795710000010536761847435992238_);fill:none;stroke:#FFC0AD;stroke-width:0.75;stroke-miterlimit:10;" x1="319.384" y1="352.922" x2="493.276" y2="317"/>
				
					<line style="clip-path:url(#XMLID_00000148642128456288795710000010536761847435992238_);fill:none;stroke:#FFC0AD;stroke-width:0.75;stroke-miterlimit:10;" x1="319.384" y1="357.486" x2="493.276" y2="321.565"/>
				
					<line style="clip-path:url(#XMLID_00000148642128456288795710000010536761847435992238_);fill:none;stroke:#FFC0AD;stroke-width:0.75;stroke-miterlimit:10;" x1="319.384" y1="362.05" x2="493.276" y2="326.129"/>
				
					<line style="clip-path:url(#XMLID_00000148642128456288795710000010536761847435992238_);fill:none;stroke:#FFC0AD;stroke-width:0.75;stroke-miterlimit:10;" x1="319.384" y1="366.614" x2="493.276" y2="330.693"/>
				
					<line style="clip-path:url(#XMLID_00000148642128456288795710000010536761847435992238_);fill:none;stroke:#FFC0AD;stroke-width:0.75;stroke-miterlimit:10;" x1="319.384" y1="371.179" x2="493.276" y2="335.258"/>
				
					<line style="clip-path:url(#XMLID_00000148642128456288795710000010536761847435992238_);fill:none;stroke:#FFC0AD;stroke-width:0.75;stroke-miterlimit:10;" x1="319.384" y1="375.743" x2="493.276" y2="339.822"/>
			</g>
			
				<rect id="XMLID_27_" x="458.999" y="281.419" transform="matrix(-1 -1.224647e-16 1.224647e-16 -1 948.499 570.1687)" style="fill:#FFDB82;" width="30.5" height="7.33"/>
			<rect x="411" y="281.5" style="fill:#FFE5E1;" width="43" height="33"/>
		</g>
		<g>
			<g>
				<defs>
					<polygon id="XMLID_30_" points="489.624,361.625 458.999,361.5 458.999,343.45 489.624,343.575 					"/>
				</defs>
				<clipPath id="XMLID_00000157266148198582130490000013683031086346194600_">
					<use xlink:href="#XMLID_30_"  style="overflow:visible;"/>
				</clipPath>
				
					<line style="clip-path:url(#XMLID_00000157266148198582130490000013683031086346194600_);fill:none;stroke:#FFC0AD;stroke-width:0.75;stroke-miterlimit:10;" x1="319.384" y1="350.215" x2="493.276" y2="314.293"/>
				
					<line style="clip-path:url(#XMLID_00000157266148198582130490000013683031086346194600_);fill:none;stroke:#FFC0AD;stroke-width:0.75;stroke-miterlimit:10;" x1="319.384" y1="354.779" x2="493.276" y2="318.858"/>
				
					<line style="clip-path:url(#XMLID_00000157266148198582130490000013683031086346194600_);fill:none;stroke:#FFC0AD;stroke-width:0.75;stroke-miterlimit:10;" x1="319.384" y1="359.343" x2="493.276" y2="323.422"/>
				
					<line style="clip-path:url(#XMLID_00000157266148198582130490000013683031086346194600_);fill:none;stroke:#FFC0AD;stroke-width:0.75;stroke-miterlimit:10;" x1="319.384" y1="363.907" x2="493.276" y2="327.986"/>
				
					<line style="clip-path:url(#XMLID_00000157266148198582130490000013683031086346194600_);fill:none;stroke:#FFC0AD;stroke-width:0.75;stroke-miterlimit:10;" x1="319.384" y1="368.472" x2="493.276" y2="332.55"/>
				
					<line style="clip-path:url(#XMLID_00000157266148198582130490000013683031086346194600_);fill:none;stroke:#FFC0AD;stroke-width:0.75;stroke-miterlimit:10;" x1="319.384" y1="373.036" x2="493.276" y2="337.115"/>
				
					<line style="clip-path:url(#XMLID_00000157266148198582130490000013683031086346194600_);fill:none;stroke:#FFC0AD;stroke-width:0.75;stroke-miterlimit:10;" x1="319.384" y1="377.6" x2="493.276" y2="341.679"/>
				
					<line style="clip-path:url(#XMLID_00000157266148198582130490000013683031086346194600_);fill:none;stroke:#FFC0AD;stroke-width:0.75;stroke-miterlimit:10;" x1="319.384" y1="382.164" x2="493.276" y2="346.243"/>
				
					<line style="clip-path:url(#XMLID_00000157266148198582130490000013683031086346194600_);fill:none;stroke:#FFC0AD;stroke-width:0.75;stroke-miterlimit:10;" x1="319.384" y1="386.729" x2="493.276" y2="350.807"/>
				
					<line style="clip-path:url(#XMLID_00000157266148198582130490000013683031086346194600_);fill:none;stroke:#FFC0AD;stroke-width:0.75;stroke-miterlimit:10;" x1="319.384" y1="391.293" x2="493.276" y2="355.372"/>
				
					<line style="clip-path:url(#XMLID_00000157266148198582130490000013683031086346194600_);fill:none;stroke:#FFC0AD;stroke-width:0.75;stroke-miterlimit:10;" x1="319.384" y1="395.857" x2="493.276" y2="359.936"/>
				
					<line style="clip-path:url(#XMLID_00000157266148198582130490000013683031086346194600_);fill:none;stroke:#FFC0AD;stroke-width:0.75;stroke-miterlimit:10;" x1="319.384" y1="400.422" x2="493.276" y2="364.5"/>
				
					<line style="clip-path:url(#XMLID_00000157266148198582130490000013683031086346194600_);fill:none;stroke:#FFC0AD;stroke-width:0.75;stroke-miterlimit:10;" x1="319.384" y1="404.986" x2="493.276" y2="369.065"/>
				
					<line style="clip-path:url(#XMLID_00000157266148198582130490000013683031086346194600_);fill:none;stroke:#FFC0AD;stroke-width:0.75;stroke-miterlimit:10;" x1="319.384" y1="409.55" x2="493.276" y2="373.629"/>
				
					<line style="clip-path:url(#XMLID_00000157266148198582130490000013683031086346194600_);fill:none;stroke:#FFC0AD;stroke-width:0.75;stroke-miterlimit:10;" x1="319.384" y1="414.114" x2="493.276" y2="378.193"/>
				
					<line style="clip-path:url(#XMLID_00000157266148198582130490000013683031086346194600_);fill:none;stroke:#FFC0AD;stroke-width:0.75;stroke-miterlimit:10;" x1="319.384" y1="418.679" x2="493.276" y2="382.758"/>
				
					<line style="clip-path:url(#XMLID_00000157266148198582130490000013683031086346194600_);fill:none;stroke:#FFC0AD;stroke-width:0.75;stroke-miterlimit:10;" x1="319.384" y1="423.243" x2="493.276" y2="387.322"/>
			</g>
			
				<rect id="XMLID_29_" x="458.999" y="328.919" transform="matrix(-1 -1.224647e-16 1.224647e-16 -1 948.499 665.1687)" style="fill:#FFDB82;" width="30.5" height="7.33"/>
			<rect x="411" y="329" style="fill:#FFE5E1;" width="43" height="33"/>
		</g>
		<g>
			<g>
				<defs>
					<polygon id="XMLID_33_" points="489.624,409.125 458.999,409 458.999,390.95 489.624,391.075 					"/>
				</defs>
				<clipPath id="XMLID_00000028307221207996843820000010015844299553970349_">
					<use xlink:href="#XMLID_33_"  style="overflow:visible;"/>
				</clipPath>
				
					<line style="clip-path:url(#XMLID_00000028307221207996843820000010015844299553970349_);fill:none;stroke:#FFC0AD;stroke-width:0.75;stroke-miterlimit:10;" x1="319.384" y1="397.715" x2="493.276" y2="361.793"/>
				
					<line style="clip-path:url(#XMLID_00000028307221207996843820000010015844299553970349_);fill:none;stroke:#FFC0AD;stroke-width:0.75;stroke-miterlimit:10;" x1="319.384" y1="402.279" x2="493.276" y2="366.358"/>
				
					<line style="clip-path:url(#XMLID_00000028307221207996843820000010015844299553970349_);fill:none;stroke:#FFC0AD;stroke-width:0.75;stroke-miterlimit:10;" x1="319.384" y1="406.843" x2="493.276" y2="370.922"/>
				
					<line style="clip-path:url(#XMLID_00000028307221207996843820000010015844299553970349_);fill:none;stroke:#FFC0AD;stroke-width:0.75;stroke-miterlimit:10;" x1="319.384" y1="411.407" x2="493.276" y2="375.486"/>
				
					<line style="clip-path:url(#XMLID_00000028307221207996843820000010015844299553970349_);fill:none;stroke:#FFC0AD;stroke-width:0.75;stroke-miterlimit:10;" x1="319.384" y1="415.972" x2="493.276" y2="380.05"/>
				
					<line style="clip-path:url(#XMLID_00000028307221207996843820000010015844299553970349_);fill:none;stroke:#FFC0AD;stroke-width:0.75;stroke-miterlimit:10;" x1="319.384" y1="420.536" x2="493.276" y2="384.615"/>
				
					<line style="clip-path:url(#XMLID_00000028307221207996843820000010015844299553970349_);fill:none;stroke:#FFC0AD;stroke-width:0.75;stroke-miterlimit:10;" x1="319.384" y1="425.1" x2="493.276" y2="389.179"/>
				
					<line style="clip-path:url(#XMLID_00000028307221207996843820000010015844299553970349_);fill:none;stroke:#FFC0AD;stroke-width:0.75;stroke-miterlimit:10;" x1="319.384" y1="429.664" x2="493.276" y2="393.743"/>
				
					<line style="clip-path:url(#XMLID_00000028307221207996843820000010015844299553970349_);fill:none;stroke:#FFC0AD;stroke-width:0.75;stroke-miterlimit:10;" x1="319.384" y1="434.229" x2="493.276" y2="398.307"/>
				
					<line style="clip-path:url(#XMLID_00000028307221207996843820000010015844299553970349_);fill:none;stroke:#FFC0AD;stroke-width:0.75;stroke-miterlimit:10;" x1="319.384" y1="438.793" x2="493.276" y2="402.872"/>
				
					<line style="clip-path:url(#XMLID_00000028307221207996843820000010015844299553970349_);fill:none;stroke:#FFC0AD;stroke-width:0.75;stroke-miterlimit:10;" x1="319.384" y1="443.357" x2="493.276" y2="407.436"/>
				
					<line style="clip-path:url(#XMLID_00000028307221207996843820000010015844299553970349_);fill:none;stroke:#FFC0AD;stroke-width:0.75;stroke-miterlimit:10;" x1="319.384" y1="447.922" x2="493.276" y2="412"/>
				
					<line style="clip-path:url(#XMLID_00000028307221207996843820000010015844299553970349_);fill:none;stroke:#FFC0AD;stroke-width:0.75;stroke-miterlimit:10;" x1="319.384" y1="452.486" x2="493.276" y2="416.565"/>
				
					<line style="clip-path:url(#XMLID_00000028307221207996843820000010015844299553970349_);fill:none;stroke:#FFC0AD;stroke-width:0.75;stroke-miterlimit:10;" x1="319.384" y1="457.05" x2="493.276" y2="421.129"/>
				
					<line style="clip-path:url(#XMLID_00000028307221207996843820000010015844299553970349_);fill:none;stroke:#FFC0AD;stroke-width:0.75;stroke-miterlimit:10;" x1="319.384" y1="461.614" x2="493.276" y2="425.693"/>
				
					<line style="clip-path:url(#XMLID_00000028307221207996843820000010015844299553970349_);fill:none;stroke:#FFC0AD;stroke-width:0.75;stroke-miterlimit:10;" x1="319.384" y1="466.179" x2="493.276" y2="430.258"/>
				
					<line style="clip-path:url(#XMLID_00000028307221207996843820000010015844299553970349_);fill:none;stroke:#FFC0AD;stroke-width:0.75;stroke-miterlimit:10;" x1="319.384" y1="470.743" x2="493.276" y2="434.822"/>
			</g>
			
				<rect id="XMLID_31_" x="458.999" y="376.419" transform="matrix(-1 -1.224647e-16 1.224647e-16 -1 948.499 760.1687)" style="fill:#FFDB82;" width="30.5" height="7.33"/>
			<rect x="411" y="376.5" style="fill:#FFE5E1;" width="43" height="33"/>
		</g>
		<rect x="240.5" y="361.5" style="fill:#FB523A;" width="157.385" height="7.5"/>
	</g>
	<path style="fill:#D3E3F8;" d="M608.97,111.168c-1.13-1.037-2.518-1.691-4.083-1.691c-0.604,0-1.22,0.112-1.81,0.311
		c-0.367-2.034-1.798-3.808-4.301-3.808c-1.466,0-2.436,0.418-3.196,1.075c-0.203-0.957-0.691-1.869-1.423-2.541
		c-1.003-0.921-2.267-1.502-3.656-1.502c-1.315,0-2.711,0.572-3.641,1.502c-0.5,0.464-0.861,1.014-1.068,1.65
		c-0.321,0.611-0.472,1.27-0.445,1.975c0.029,0.654,0.149,1.32,0.385,1.938c-0.278-0.052-0.573-0.083-0.886-0.083
		c-2.753,0-4.132,2.14-4.133,4.279h29.838C610.345,113.108,609.856,111.982,608.97,111.168z"/>
	<path style="fill:#D3E3F8;" d="M83.604,112.333c-0.128-0.692-0.356-1.354-0.709-1.901c-0.856-1.327-2.13-2.495-3.715-2.856
		c-0.551-0.074-1.102-0.148-1.653-0.222c-0.436,0.001-0.857,0.058-1.27,0.144c0.001-0.09,0.01-0.179,0.007-0.271
		c-0.072-1.607-0.6-3.273-1.819-4.393c-1.215-1.116-2.709-1.819-4.392-1.819c-1.593,0-3.266,0.693-4.392,1.819
		c-0.606,0.563-1.034,1.229-1.284,1.999c-0.389,0.74-0.567,1.538-0.535,2.393c0.048,1.07,0.304,2.163,0.826,3.106
		c-0.697-0.315-1.452-0.496-2.256-0.496c-1.445,0-2.963,0.629-3.985,1.651c-0.278,0.258-0.514,0.54-0.709,0.846H83.604z"/>
	<g>
		<g>
			<g>
				<path style="fill:#7DC1A3;" d="M543.984,315.677c-1.773-1.218-3.389-2.755-4.364-4.672c-0.975-1.917-1.157-4.352-0.001-6.166
					c1.691-2.654,5.469-3.043,8.53-2.313c3.061,0.73,5.938,2.283,9.077,2.508c-6.961-2.844-12.988-7.926-16.966-14.307
					c-2.101-3.37-3.554-7.974-1.118-11.11c1.617-2.082,4.544-2.788,7.151-2.392c2.606,0.396,4.97,1.715,7.231,3.07
					c-5.04-9.806-7.587-20.881-7.337-31.904c0.075-3.303,0.753-7.162,3.697-8.662c1.936-0.987,4.36-0.577,6.211,0.56
					c1.851,1.137,3.224,2.903,4.43,4.71c5.614,8.411,8.47,18.631,8.032,28.734c1.659-3.253,3.725-6.453,6.805-8.414
					c3.08-1.961,7.383-2.381,10.283-0.162c3.653,2.795,3.683,8.282,2.645,12.763c-1.859,8.026-6.076,15.491-11.989,21.228
					c3.767-0.879,6.805-3.58,10.248-5.344c3.443-1.764,8.164-2.363,10.771,0.494c2.473,2.71,1.72,7.02,0.271,10.39
					C593.618,313.929,565.899,330.736,543.984,315.677z"/>
				<path style="fill:#5DB18C;" d="M551.452,241.044c-0.201-0.59-0.491-1.125-0.838-1.614c1.79-0.575,3.855-0.139,5.48,0.86
					c1.851,1.137,3.224,2.903,4.43,4.71c5.614,8.411,8.47,18.631,8.032,28.734c1.659-3.253,3.725-6.453,6.805-8.414
					c3.08-1.961,7.383-2.381,10.283-0.162c3.653,2.795,3.683,8.282,2.645,12.763c-1.859,8.026-6.076,15.491-11.989,21.228
					c3.767-0.879,6.805-3.58,10.248-5.344c3.443-1.764,8.164-2.363,10.771,0.494c2.473,2.71,1.72,7.02,0.271,10.39
					c-2.426,5.645-13.716,14.113-27.13,16.415C568.416,293.703,560.281,266.918,551.452,241.044z"/>
			</g>
			<path style="fill:none;stroke:#FFC366;stroke-width:1.0766;stroke-linecap:round;stroke-miterlimit:10;" d="M563.707,281.803
				c5.006,18.515,8.592,68.491,6.408,87.067"/>
		</g>
		<g>
			<g>
				<path style="fill:#7DC1A3;" d="M541.139,357.754c-1.726-0.416-3.424-1.125-4.741-2.315c-1.317-1.19-2.175-3.013-1.819-4.752
					c0.521-2.544,3.318-3.958,5.893-4.298c2.575-0.339,5.25,0.01,7.736-0.742c-6.204-0.14-12.348-2.281-17.295-6.027
					c-2.612-1.978-5.09-5.099-4.137-8.234c0.633-2.081,2.681-3.488,4.807-3.951c2.126-0.463,4.336-0.143,6.479,0.235
					c-6.776-6.073-12.004-13.859-15.06-22.429c-0.916-2.568-1.531-5.742,0.296-7.767c1.201-1.331,3.19-1.73,4.953-1.399
					c1.762,0.331,3.341,1.287,4.803,2.325c6.807,4.829,12.021,11.864,14.661,19.781c0.32-2.996,0.969-6.072,2.765-8.492
					s4.989-4.012,7.878-3.156c3.64,1.078,5.28,5.298,5.801,9.059c0.933,6.735-0.117,13.732-2.984,19.896
					c2.645-1.788,4.19-4.765,6.324-7.14c2.134-2.375,5.596-4.228,8.449-2.794c2.705,1.36,3.395,4.904,3.272,7.929
					C578.881,341.776,562.47,362.901,541.139,357.754z"/>
				<path style="fill:#5DB18C;" d="M524.895,298.025c-0.329-0.395-0.71-0.722-1.122-0.997c1.21-0.971,2.931-1.243,4.477-0.953
					c1.762,0.331,3.341,1.287,4.803,2.325c6.807,4.829,12.021,11.864,14.661,19.781c0.32-2.996,0.969-6.072,2.765-8.492
					s4.989-4.012,7.878-3.156c3.64,1.078,5.28,5.298,5.801,9.059c0.933,6.735-0.117,13.732-2.984,19.896
					c2.645-1.788,4.19-4.765,6.324-7.14c2.134-2.375,5.596-4.228,8.449-2.794c2.705,1.36,3.395,4.904,3.272,7.929
					c-0.206,5.066-6.412,14.921-16.073,20.65C553.493,333.614,539.328,315.366,524.895,298.025z"/>
			</g>
			<path style="fill:none;stroke:#FFC366;stroke-width:1.0766;stroke-linecap:round;stroke-miterlimit:10;" d="M546.356,325.829
				c9.317,12.796,17.171,25.887,20.963,40.849"/>
		</g>
		<g>
			<g>
				<path style="fill:#7DC1A3;" d="M566.063,347.375c-0.834-1.275-1.478-2.717-1.602-4.235c-0.123-1.519,0.413-3.163,1.658-4.04
					c1.822-1.284,4.402-0.522,6.211,0.78c1.809,1.302,3.276,3.094,5.272,4.086c-3.795-3.736-6.376-8.688-7.265-13.939
					c-0.469-2.773-0.182-6.18,2.257-7.579c1.62-0.929,3.727-0.603,5.328,0.358c1.601,0.961,2.794,2.461,3.911,3.957
					c-0.663-7.781,0.649-15.722,3.779-22.875c0.938-2.144,2.421-4.489,4.753-4.68c1.534-0.126,3.012,0.795,3.918,2.038
					c0.907,1.243,1.331,2.769,1.634,4.278c1.414,7.021,0.535,14.485-2.471,20.986c1.962-1.685,4.177-3.225,6.723-3.681
					c2.546-0.456,5.477,0.427,6.78,2.661c1.641,2.815,0.184,6.417-1.702,9.073c-3.378,4.758-8.149,8.514-13.567,10.68
					c2.705,0.438,5.422-0.514,8.152-0.743c2.73-0.229,5.984,0.649,6.924,3.223c0.891,2.441-0.763,5.062-2.618,6.88
					C599.049,359.587,576.367,363.138,566.063,347.375z"/>
				<path style="fill:#5DB18C;" d="M591.039,300.491c0.027-0.441-0.019-0.869-0.114-1.283c1.327,0.105,2.563,0.947,3.359,2.038
					c0.907,1.243,1.331,2.769,1.634,4.278c1.414,7.021,0.535,14.485-2.471,20.986c1.962-1.685,4.177-3.225,6.723-3.681
					c2.546-0.456,5.477,0.427,6.78,2.661c1.641,2.815,0.184,6.417-1.702,9.073c-3.378,4.758-8.149,8.514-13.567,10.68
					c2.705,0.438,5.422-0.514,8.152-0.743c2.73-0.229,5.984,0.649,6.924,3.223c0.891,2.441-0.763,5.062-2.618,6.88
					c-3.109,3.045-12.784,5.555-22.191,3.453C587.982,339.554,589.861,319.817,591.039,300.491z"/>
			</g>
			<path style="fill:none;stroke:#FFC366;stroke-width:1.0766;stroke-linecap:round;stroke-miterlimit:10;" d="M588.099,330.491
				c-1.703,13.477-4.493,26.278-10.923,37.86"/>
		</g>
		<polygon style="fill:#FFBFB3;" points="554.334,432.667 588.666,432.667 597.667,368.667 546.333,368.667 		"/>
		<path style="fill:#FFAA9A;" d="M546.311,380h51.378c2.197,0,3.978-1.781,3.978-3.978v-8.044c0-2.197-1.781-3.978-3.978-3.978
			h-51.378c-2.197,0-3.978,1.781-3.978,3.978v8.044C542.333,378.219,544.114,380,546.311,380z"/>
	</g>
	<g>
		<polyline style="fill:none;stroke:#FFC366;stroke-linecap:round;stroke-miterlimit:10;" points="516.5,171 516.5,182.5 512,182.5 
					"/>
		<polyline style="fill:none;stroke:#FFC366;stroke-linecap:round;stroke-miterlimit:10;" points="510.5,167 510.5,182.5 506,182.5 
					"/>
		<path style="fill:#FFDB82;" d="M536.884,161.125L536.884,161.125c-3.33,8.922-12.87,13.879-22.086,11.475l0,0
			c-8.578-2.238-14.947-9.447-16.112-18.235l-0.613-4.63c-0.778-5.875,3.148-11.342,8.964-12.482l0,0
			c5.9-1.156,11.664,2.545,13.066,8.392l4.815,20.065L536.884,161.125z"/>
		<path style="fill:#E89A49;" d="M497.975,146.957c0,0,2.621,1.223,0.398,4.122l-3.88,0.539l1.235-2.097l-2.004-3.591
			L497.975,146.957z"/>
	</g>
	<g>
		<path style="fill:#91BAEE;" d="M436.824,121.233l-36.157,0.454c-4.452,0.056-8.144,3.925-8.088,8.376l0.347,27.646
			c0.056,4.452,3.847,8.438,8.299,8.382l6.239-0.078l0.084,6.661l12.63-6.82l17.204-0.216c4.452-0.056,7.776-4.131,7.72-8.583
			l-0.347-27.647C444.699,124.957,441.276,121.177,436.824,121.233z"/>
		<g>
			<path style="fill:#FFFFFF;" d="M414.958,152.804h15.641c1.89,0,3.422-1.532,3.422-3.422v-10.101c0-1.89-1.532-3.422-3.422-3.422
				h-2.933l0.538-0.92c0.991-1.695,1.514-3.623,1.514-5.586v-0.552c0-1.439-1.167-2.606-2.606-2.606l0,0
				c-1.42,0-2.579,1.137-2.605,2.557l0,0c-0.012,1.299-0.478,2.553-1.318,3.544l0,0c-1.345,1.588-3.321,2.503-5.402,2.503h-2.829
				V152.804z"/>
			<path style="fill:#193441;" d="M413.581,153.486h-4.076c-1.41,0-2.553-1.143-2.553-2.553v-14.788c0-1.41,1.143-2.553,2.553-2.553
				h4.076c1.41,0,2.553,1.143,2.553,2.553v14.788C416.134,152.343,414.991,153.486,413.581,153.486z"/>
		</g>
	</g>
	<g>
		<path style="fill:#B9D3F4;" d="M408.561,53.9l-29.597,0.372c-3.644,0.046-6.667,3.212-6.621,6.857l0.284,22.631
			c0.046,3.644,3.149,6.907,6.793,6.861l5.107-0.064l0.068,5.452l10.338-5.583l14.083-0.177c3.644-0.046,6.365-3.382,6.319-7.026
			l-0.284-22.63C415.007,56.948,412.205,53.854,408.561,53.9z"/>
		<g>
			<path style="fill:#FFFFFF;" d="M390.663,79.743h12.803c1.547,0,2.801-1.254,2.801-2.801v-8.268c0-1.547-1.254-2.801-2.801-2.801
				h-2.4l0.44-0.753c0.811-1.387,1.239-2.965,1.239-4.572v-0.452c0-1.178-0.955-2.133-2.133-2.133l0,0
				c-1.162,0-2.111,0.931-2.133,2.093l0,0c-0.009,1.063-0.391,2.09-1.079,2.901l0,0c-1.101,1.3-2.719,2.049-4.422,2.049h-2.316
				V79.743z"/>
			<path style="fill:#193441;" d="M389.072,80.301h-2.409c-1.41,0-2.553-1.143-2.553-2.553V66.57c0-1.41,1.143-2.553,2.553-2.553
				h2.409c1.41,0,2.553,1.143,2.553,2.553v11.178C391.625,79.158,390.482,80.301,389.072,80.301z"/>
		</g>
	</g>
	<g>
		<path style="fill:#FFAA9A;" d="M295.55,109.178l33.423,0.42c4.115,0.052,7.529,3.628,7.477,7.743l-0.321,25.556
			c-0.052,4.115-3.556,7.8-7.671,7.748l-5.767-0.073l-0.077,6.157l-11.675-6.305l-15.903-0.2c-4.115-0.052-7.188-3.819-7.136-7.934
			l0.321-25.556C288.271,112.62,291.435,109.127,295.55,109.178z"/>
		<path style="fill:#FFFFFF;" d="M323.06,120.291c-2.091-1.623-5.241-1.232-7.406,0.291c-1.483,1.044-2.581,2.509-3.473,4.105
			c-0.931-1.573-2.066-3.01-3.575-4.017c-2.202-1.468-5.361-1.78-7.411-0.105c-1.951,1.595-2.359,4.534-1.598,6.937
			c0.761,2.403,2.173,4.381,3.912,6.205c2.719,2.85,8.254,8.24,8.254,8.24c0-0.014,5.649-5.536,8.295-8.453
			c1.694-1.867,3.709-3.886,4.41-6.307C325.172,124.767,325.051,121.837,323.06,120.291z"/>
	</g>
	<g>
		<path style="fill:#FFBFB3;" d="M330.542,37.178l19.366,0.243c2.384,0.03,4.362,2.102,4.332,4.486l-0.186,14.807
			c-0.03,2.384-2.061,4.519-4.445,4.489l-3.342-0.042l-0.045,3.567l-6.764-3.653l-9.215-0.116c-2.384-0.03-4.165-2.213-4.135-4.597
			l0.186-14.807C326.324,39.173,328.157,37.148,330.542,37.178z"/>
		<path style="fill:#FFFFFF;" d="M346.481,43.617c-1.211-0.941-3.037-0.714-4.291,0.168c-0.859,0.605-1.495,1.454-2.012,2.379
			c-0.54-0.911-1.197-1.744-2.071-2.327c-1.276-0.851-3.107-1.031-4.294-0.061c-1.131,0.924-1.367,2.627-0.926,4.019
			c0.441,1.392,1.259,2.539,2.267,3.595c1.576,1.651,4.783,4.774,4.783,4.774c0-0.008,3.1-3.207,4.634-4.898
			c0.981-1.082,2.235-2.252,2.641-3.654C347.619,46.21,347.635,44.512,346.481,43.617z"/>
	</g>
	<g>
		<g>
			<path style="fill:#FFDB82;" d="M180.085,160.327l4.177,8.464l9.34,1.357c1.017,0.148,1.424,1.398,0.688,2.116l-6.759,6.588
				l1.596,9.303c0.174,1.013-0.89,1.786-1.8,1.308l-8.354-4.392l-8.354,4.392c-0.91,0.478-1.973-0.294-1.8-1.308l1.595-9.303
				l-6.759-6.588c-0.736-0.718-0.33-1.968,0.688-2.116l9.34-1.357l4.177-8.464C178.316,159.405,179.63,159.405,180.085,160.327z"/>
		</g>
		<g>
			<path style="fill:#FFC366;" d="M180.085,160.327l4.177,8.464l9.34,1.357c1.017,0.148,1.424,1.398,0.688,2.116l-6.759,6.588
				l1.596,9.303c0.174,1.013-0.89,1.786-1.8,1.308l-8.354-4.392l-8.354,4.392c-0.91,0.478-1.973-0.294-1.8-1.308l1.595-9.303
				l-6.759-6.588c-0.736-0.718-0.33-1.968,0.688-2.116l9.34-1.357l4.177-8.464C178.316,159.405,179.63,159.405,180.085,160.327z"/>
		</g>
	</g>
	<path style="fill:#FFDB82;" d="M299.329,70.71l1.338,2.711l2.992,0.435c0.326,0.047,0.456,0.448,0.22,0.678l-2.165,2.11l0.511,2.98
		c0.056,0.325-0.285,0.572-0.576,0.419l-2.676-1.407l-2.676,1.407c-0.291,0.153-0.632-0.094-0.576-0.419l0.511-2.98l-2.165-2.11
		c-0.236-0.23-0.106-0.63,0.22-0.678l2.992-0.435l1.338-2.711C298.762,70.415,299.184,70.415,299.329,70.71z"/>
	<path style="fill:#FFDB82;" d="M356.985,92.672l1.577,3.196l3.527,0.512c0.384,0.056,0.538,0.528,0.26,0.799l-2.552,2.488
		l0.603,3.513c0.066,0.383-0.336,0.674-0.68,0.494l-3.155-1.659l-3.155,1.659c-0.344,0.181-0.745-0.111-0.68-0.494l0.602-3.513
		l-2.552-2.488c-0.278-0.271-0.125-0.743,0.26-0.799l3.527-0.512l1.577-3.196C356.317,92.323,356.813,92.323,356.985,92.672z"/>
	<path style="fill:#FFDB82;" d="M356.507,143.576l2.287,4.634l5.114,0.743c0.557,0.081,0.78,0.766,0.376,1.158l-3.701,3.607
		l0.874,5.093c0.095,0.555-0.487,0.978-0.985,0.716l-4.574-2.405l-4.574,2.405c-0.498,0.262-1.081-0.161-0.985-0.716l0.874-5.093
		l-3.701-3.607c-0.403-0.393-0.181-1.077,0.376-1.158l5.114-0.743l2.287-4.634C355.539,143.071,356.258,143.071,356.507,143.576z"/>
	<path style="fill:#FFDB82;" d="M436.628,83.143l1.489,3.016l3.329,0.484c0.363,0.053,0.507,0.498,0.245,0.754l-2.409,2.348
		l0.569,3.315c0.062,0.361-0.317,0.636-0.641,0.466l-2.977-1.565l-2.977,1.565c-0.324,0.171-0.703-0.105-0.641-0.466l0.569-3.315
		l-2.409-2.348c-0.262-0.256-0.118-0.701,0.245-0.754l3.329-0.484l1.489-3.016C435.998,82.815,436.466,82.815,436.628,83.143z"/>
	<path style="fill:#FFDB82;" d="M375.673,24.204l0.931,1.887l2.082,0.303c0.227,0.033,0.317,0.312,0.153,0.472l-1.507,1.469
		l0.356,2.074c0.039,0.226-0.198,0.398-0.401,0.292l-1.862-0.979l-1.862,0.979c-0.203,0.107-0.44-0.066-0.401-0.292l0.356-2.074
		l-1.507-1.469c-0.164-0.16-0.074-0.439,0.153-0.472l2.082-0.303l0.931-1.887C375.279,23.998,375.572,23.998,375.673,24.204z"/>
	<path style="fill:#D3E3F8;" d="M196.322,94.99c-0.461-0.468-1.024-0.901-1.693-1.297c-0.723-0.329-1.445-0.658-2.168-0.987
		c-1.671-0.571-3.473-0.858-5.406-0.862c-1.475-0.033-2.85,0.149-4.127,0.544c-0.97,0.186-1.842,0.471-2.622,0.85
		c-0.018-0.026-0.037-0.051-0.055-0.077c-0.13-0.218-0.283-0.433-0.461-0.644c-0.1-0.14-0.2-0.279-0.3-0.419
		c-0.819-0.816-1.92-1.465-3.303-1.947c-0.032-0.014-0.06-0.022-0.094-0.033c-0.744-0.185-1.489-0.37-2.233-0.555
		c-0.433-0.035-0.866-0.07-1.299-0.103c-0.834-0.132-1.669-0.132-2.503,0c-0.43,0.031-0.859,0.065-1.288,0.102
		c-0.551,0.088-1.852,0.442-2.367,0.585l-0.523,0.239c-0.308-0.693-0.873-1.343-1.782-1.836c-1.38-0.747-3.076-1.218-4.987-1.218
		c-1.808,0-3.708,0.464-4.987,1.218c-0.688,0.377-1.174,0.822-1.458,1.338c-0.442,0.495-0.644,1.029-0.607,1.602
		c0.014,0.181,0.061,0.363,0.107,0.545c-0.656-0.076-1.313-0.149-1.956-0.232c-2.416-0.314-4.941-0.201-7.116,0.549
		c-1.612,0.556-3.151,1.562-3.901,2.641H196.322z"/>
	<g>
		<path style="fill:#FB523A;" d="M134.307,145.384c3.895,1.704,7.121,4.887,8.876,8.76c2.038,4.495,2.075,9.64,1.52,14.544
			s-1.667,9.754-1.801,14.687c-0.06,2.22,0.032,4.611-1.21,6.452c-0.803,1.191-2.061,1.979-3.156,2.909
			c-1.095,0.93-2.105,2.172-2.087,3.608c0.012,0.992,0.482,2.123-0.148,2.89c-0.756,0.92-2.33,0.287-2.974-0.714
			c-0.644-1.001-0.836-2.265-1.596-3.181c-1.689-2.036-5.002-1.283-7.404-2.391c-2.534-1.169-3.592-4.141-4.399-6.812
			c-2.06-6.817-4.134-13.715-4.509-20.826c-0.327-6.212,0.7-13.016,4.207-18.291C122.61,142.529,129.98,143.492,134.307,145.384z"/>
		<path style="fill:#FB523A;" d="M134.859,420.696l-0.461,8.063c0.042,2.869,2.402,5.161,5.271,5.119l17.216-0.252
			c1.506-0.022,2.526-1.541,1.977-2.943l0,0c-0.317-0.808-1.086-1.347-1.953-1.369l-1.567-0.007
			c-5.382-0.025-10.92-3.706-12.054-8.967L134.859,420.696z"/>
		<g>
			<path style="fill:#FFC0A9;" d="M121.055,270.112c6.869-2.776,14.437-1.019,19.412,3.853c2.478,8.762,4.008,17.686,4.28,26.89
				c0.024,0.814,0.345,1.392,0.811,1.765c-0.016,1.945-0.022,4.033-0.011,6.258c-0.006,3.161,0.011,6.58,0.084,10.189
				c0.048,3.612,0.097,7.422,0.226,11.355c0.12,3.934,0.167,8.014,0.344,12.158c0.062,2.093,0.125,4.202,0.188,6.32l0.08,3.521
				c0.015,0.617-0.018,1.067-0.025,1.609l-0.01,0.39l-0.001,0.049c-0.003-0.039,0.027,0.5,0.013,0.303l-0.006,0.128l-0.012,0.257
				l-0.052,1.024c-0.199,2.602-0.496,4.742-0.708,6.899c-0.201,2.136-0.398,4.201-0.505,6.223c-0.248,4.03-0.347,7.893-0.53,11.414
				c-0.041,0.827-0.082,1.648-0.122,2.461c-0.026,0.893-0.052,1.777-0.078,2.652c-0.042,1.779-0.046,3.58-0.044,5.329
				c0.025,3.504-0.05,6.861-0.044,9.958c-0.067,3.105-0.079,5.953-0.177,8.489c-0.061,2.532-0.171,4.747-0.251,6.571
				c-0.188,3.654-0.381,5.744-0.381,5.744c-0.207,2.266-2.211,3.935-4.477,3.729c-1.72-0.157-3.098-1.358-3.571-2.914
				c0,0-0.613-2.034-1.497-5.602c-0.428-1.787-0.955-3.957-1.478-6.457c-0.564-2.496-1.078-5.326-1.674-8.418
				c-0.518-3.1-1.132-6.458-1.598-10.063c-0.241-1.805-0.483-3.657-0.697-5.615l-0.081-0.733l-0.068-0.859l-0.115-1.423
				c-0.032-1.033-0.092-2.318-0.054-3.318c0.038-4.252,0.67-8.394,1.213-12.487c0.292-2.04,0.511-4.067,0.674-6.045
				c0.141-1.956,0.185-3.953-0.014-5.499l-0.079-0.53l-0.019-0.132l-0.009-0.066c-0.014-0.229,0.015,0.277,0.008,0.206l-0.009-0.048
				l-0.075-0.384c-0.102-0.489-0.193-1.074-0.304-1.485l-0.665-2.639c-0.497-1.974-0.991-3.94-1.482-5.891
				c-0.981-3.935-2.115-7.8-3.166-11.552c-1.038-3.753-2.137-7.369-3.191-10.797c-1.026-3.432-2.063-6.667-3.045-9.648
				c-1.923-5.967-3.682-10.915-4.944-14.349c-0.614-1.719-1.163-3.057-1.507-3.941c-0.351-0.868-0.538-1.331-0.538-1.331
				C107.336,284.379,111.805,273.85,121.055,270.112z"/>
		</g>
		<path style="fill:#FB523A;" d="M102.648,420.476l-0.921,8.013c-0.162,2.865,2.029,5.319,4.894,5.481l17.191,0.972
			c1.503,0.085,2.629-1.358,2.18-2.795l0,0c-0.258-0.828-0.987-1.421-1.851-1.505l-1.563-0.119
			c-5.367-0.408-10.386-4.509-11.143-9.838l0,0L102.648,420.476z"/>
		<path style="fill:#FFC0A9;" d="M98.868,385.891l-0.009-0.753l0.013-0.85l0.025-1.423c0.058-1.029,0.125-2.234,0.237-3.215
			c0.397-4.129,1.294-8.128,2.085-12.13c0.415-1.995,0.75-3.988,1.033-5.951c0.264-1.95,0.421-3.932,0.353-5.585
			c-0.328-4.024-0.657-8.049-0.98-12.01c-0.309-4.073-0.76-8.082-1.148-11.958c-0.375-3.875-0.824-7.621-1.27-11.166
			c-0.105-0.894-0.213-1.775-0.322-2.643l25.886-1.622c-0.258,1.542-0.516,3.124-0.771,4.751c-0.583,3.561-1.196,7.309-1.751,11.185
			c-0.567,3.876-1.216,7.876-1.736,11.942c-0.561,4.176-1.131,8.419-1.701,12.661c-0.37,2.472-0.783,4.59-1.115,6.715
			c-0.319,2.112-0.635,4.171-0.868,6.194c-0.497,4.036-0.891,7.948-1.394,11.521c-0.121,0.847-0.24,1.687-0.359,2.518
			c-0.113,0.881-0.224,1.754-0.334,2.617c-0.214,1.713-0.377,3.471-0.519,5.185c-0.285,3.478-0.555,6.765-0.804,9.8
			c-0.522,6.127-1.05,11.269-1.451,14.879c-0.401,3.618-0.765,5.661-0.765,5.661l0.001,0.01c-0.857,2.308-2.364,3.822-4.615,3.491
			c-1.709-0.251-2.957-1.507-3.343-3.087c0,0-0.504-2.072-1.177-5.686c-0.321-1.811-0.718-4.01-1.081-6.543
			c-0.406-2.53-0.733-5.395-1.109-8.534c-0.306-3.14-0.66-6.556-0.826-10.229C98.963,389.798,98.886,387.905,98.868,385.891z"/>
		<path style="fill:#91BAEE;" d="M97.304,260.43c-6.054,20.82-10.308,11.944,3.146,84.718c0,0,34.404,7.712,45.648-1.496
			c0,0,2.89-58.869-6.932-83.099C139.166,260.554,103.358,239.611,97.304,260.43z"/>
		<path style="fill:#FFC0A9;" d="M129.663,214.519l0.02,0.046c0.003,0.011,0.005,0.022,0.007,0.032l0.042,0.165
			c0.068,0.312,0.142,0.685,0.214,1.105l0.435,2.699c0.276,1.883,0.52,3.846,0.752,5.816l1.421,11.955
			c0.453,4.013,0.906,8.039,1.423,12.071c0.49,4.034,1.018,8.076,1.602,12.134l0.091,0.644c0.078,0.528,0.252,1.051,0.529,1.544
			c1.746,3.103,3.494,6.205,5.376,9.242c0.915,1.531,1.908,3.024,2.865,4.535l2.897,4.519c1.94,3.009,3.874,6.02,5.66,9.104
			c0.44,0.774,0.933,1.522,1.33,2.317c0.384,0.801,0.618,1.675,0.849,2.551c0.239,0.872,0.534,1.716,0.986,2.484
			c0.474,0.757,1.023,1.479,1.95,2.016c0.37,0.214,0.797,0.368,1.247,0.431c1.884,0.266,3.627-1.045,3.894-2.929
			c0.15-1.061-0.078-1.938-0.381-2.779c-0.324-0.83-0.806-1.584-1.344-2.311c-0.546-0.723-1.089-1.447-1.481-2.244
			c-0.38-0.803-0.664-1.653-1-2.477c-1.321-3.31-2.494-6.691-3.66-10.076l-1.763-5.071c-0.596-1.686-1.157-3.389-1.795-5.055
			c-1.05-2.877-2.203-5.704-3.367-8.526c-0.436-7.763-0.817-15.593-1.365-23.446c-0.285-4.061-0.528-8.133-0.921-12.246
			c-0.201-2.06-0.413-4.123-0.681-6.256c-0.134-1.063-0.279-2.156-0.48-3.31c-0.102-0.578-0.224-1.199-0.376-1.876l-0.143-0.572
			c-0.049-0.188-0.077-0.329-0.224-0.788c-0.118-0.372-0.264-0.774-0.399-1.108l-0.15-0.349c-1.652-3.885-6.129-5.67-10.014-4.018
			C129.822,206.146,128.011,210.634,129.663,214.519z M129.696,214.597l0.038,0.09l0.149,0.35c-0.056-0.094-0.128-0.252-0.17-0.383
			C129.705,214.625,129.702,214.615,129.696,214.597z"/>
		<path style="fill:#FFC0A9;" d="M135.208,198.004c-11.942,0.203-11.018-10.464-11.018-10.464l-7.988,0.131l-5.616-4.896
			c0,0,1.79,16.684-12.703,16.531c-3.881-0.041-11.051,13.255-11.051,13.255l54.684-2.585
			C141.516,209.976,136.994,197.974,135.208,198.004z"/>
		<path style="fill:#193441;" d="M87.587,203.785c4.867-5.124,13.144-4.778,13.144-4.778s3.803,9.29,16.053,8.866
			c12.235-0.734,15.145-10.341,15.145-10.341s6.176-0.954,11.444,3.756c5.268,4.711,6.398,22.389,6.398,22.389l-8.118,6.8
			c0,0-1.388,20.724,0.115,28.618c0,0-9.006,4.292-22.329,4.922c-13.323,0.63-22.134-3.588-22.134-3.588
			c0.751-8-4.107-26.152-4.107-26.152S81.713,209.968,87.587,203.785z"/>
		<g>
			<defs>
				<path id="XMLID_36_" d="M140.105,164.689c-0.459-9.138-5.896-14.211-16.207-14.89c-6.145-0.404-12.028,2.578-15.664,7.549
					l-0.525,0.718c-3.006,4.109-4.224,10.935-3.126,15.906l6.172,11.393c0,0-1.828,10.038-4.784,11.851
					c-3.243,1.989,13.671,6.518,17.228-0.183l0.157-8.116c0,0,5.65,2.763,10.11,0.775
					C135.799,188.654,141.041,183.338,140.105,164.689z"/>
			</defs>
			<use xlink:href="#XMLID_36_"  style="overflow:visible;fill:#FFC0A9;"/>
			<clipPath id="XMLID_00000152227992113669574710000005384725717825647540_">
				<use xlink:href="#XMLID_36_"  style="overflow:visible;"/>
			</clipPath>
		</g>
		<path style="opacity:0.7;fill:#FF9F89;" d="M124.158,189.266c0,0-6.355-2.077-8.264-2.738c0,0,4.69,3.908,8.744,4.968
			L124.158,189.266z"/>
		<path style="fill:#A7C8F1;" d="M161.486,238.691l7.549-2.394c0.637-0.202,1.127-0.716,1.297-1.363l4.961-18.803
			c0.392-1.488-1.01-2.823-2.477-2.358l-7.548,2.394c-0.637,0.202-1.127,0.716-1.297,1.362l-4.961,18.803
			C158.617,237.821,160.02,239.156,161.486,238.691z"/>
		<path style="fill:#FFC0A9;" d="M109.792,222.863c0.849,1.619,1.808,3.42,2.861,5.371c2.214,4.049,4.864,8.751,7.938,13.355
			c1.523,2.293,3.211,4.541,4.893,6.446c0.836,0.942,1.695,1.773,2.401,2.334c0.347,0.279,0.645,0.469,0.799,0.573
			c0.156,0.108,0.133,0.1-0.15,0.132c0.144,0.128,1.336,0.023,2.494-0.278c1.194-0.301,2.525-0.701,3.851-1.194
			c2.671-0.973,5.415-2.133,8.032-3.377c2.626-1.24,5.162-2.537,7.553-3.815c2.393-1.277,4.611-2.582,6.643-3.817
			c1.009-0.631,1.975-1.235,2.895-1.81c0.923-0.571,1.784-1.137,2.499-1.793c1.42-1.328,2.515-2.665,3.635-3.477
			c1.089-0.853,2.086-1.339,2.824-1.594c0.731-0.268,1.191-0.301,1.191-0.301l0.197-0.015c0.483-0.033,0.98,0.029,1.466,0.2
			c1.922,0.672,2.934,2.775,2.261,4.697c0,0-0.164,0.469-0.612,1.131c-0.441,0.674-1.178,1.546-2.311,2.403
			c-1.101,0.898-2.714,1.622-4.424,2.628c-0.849,0.511-1.659,1.18-2.503,1.901c-0.855,0.708-1.755,1.452-2.694,2.228
			c-1.892,1.555-3.942,3.239-6.11,5.021c-2.183,1.786-4.525,3.642-7.044,5.501c-2.531,1.847-5.2,3.741-8.229,5.469
			c-1.528,0.848-3.123,1.7-4.953,2.421c-0.921,0.359-1.894,0.7-2.988,0.989c-0.558,0.145-1.11,0.269-1.785,0.381l-0.602,0.078
			l-0.522,0.057l-0.299,0.031l-0.15,0.016c0.184-0.004-0.285,0.008-0.276,0.008l-0.087,0l-0.173-0.001
			c-1.887,0.001-3.487-0.411-4.813-0.898c-1.33-0.496-2.438-1.084-3.42-1.686c-1.951-1.211-3.489-2.491-4.891-3.767
			c-2.782-2.555-4.976-5.177-7.008-7.719c-2.024-2.543-3.789-5.059-5.407-7.457c-1.622-2.394-3.056-4.695-4.346-6.83
			c-0.286-0.471-0.561-0.932-0.831-1.388C101.753,231.065,105.647,226.844,109.792,222.863z"/>
		<path style="fill:#FB523A;" d="M122.1,169.109c-2.686,2.962-5.982,5.449-7.972,8.917c-2.017,3.515-2.045,6.756-1.961,10.808
			c0.084,4.052,4.339,11.095,1.5,12.167c-2.839,1.072-3.545-4.545-4.653-7.282c-0.459-1.133-0.957-2.319-1.919-3.072
			c-0.865-0.677-2.003-0.918-2.889-1.567c-2.051-1.503-2.06-4.481-2.822-6.907c-1.097-3.495-4.021-6.197-5.08-9.704
			c-1.032-3.415-0.157-7.091,0.869-10.507c1.238-4.122,2.785-8.323,5.817-11.376c2.936-2.956,6.696-5.359,10.677-6.585
			c2.759-0.85,7.627-1.116,10.5-0.833c2.363,0.232,3.7,1.811,5.164,3.812c1.345,1.837,2.54,4.285,2.17,6.355
			C130.479,159.036,125.995,164.814,122.1,169.109z"/>
		<path style="fill:#FB523A;" d="M141.733,168.749c0.857-4.665,0.833-9.708-1.415-13.885c-1.912-3.553-13.758-10.023-10.565-2.583
			C132.411,158.473,136.829,164.18,141.733,168.749z"/>
	</g>
	<path style="fill:#5DB18C;" d="M48.607,435.465L48.607,435.465c0,1.091,0.885,1.976,1.976,1.976h648.833
		c1.091,0,1.976-0.885,1.976-1.976l0,0c0-1.092-0.885-1.976-1.976-1.976H50.584C49.492,433.488,48.607,434.373,48.607,435.465z"/>
</g>
<g id="DESIGNED_BY_FREEPIK">
	<g>
		<g id="XMLID_319_">
			<g id="XMLID_338_">
				<path id="XMLID_346_" style="fill:#1D262D;" d="M385.104,468.454c-0.432,0.443-0.803,0.931-1.108,1.453l-0.465-0.241
					c-0.067-0.298-0.349-0.503-0.659-0.466c-0.331,0.039-0.568,0.339-0.529,0.67c0.039,0.331,0.339,0.568,0.67,0.529
					c0.066-0.008,0.127-0.026,0.184-0.052l0.451,0.234c-0.251,0.554-0.433,1.139-0.539,1.744l0.746,0.132
					c0.23-1.306,0.85-2.507,1.792-3.473L385.104,468.454z"/>
				<path id="XMLID_345_" style="fill:#1D262D;" d="M390.592,466.152c-0.171,0-0.341,0.006-0.51,0.017l-0.074-0.626
					c0.188-0.149,0.296-0.389,0.266-0.645c-0.046-0.393-0.402-0.674-0.795-0.628c-0.393,0.046-0.674,0.402-0.628,0.795
					c0.03,0.254,0.189,0.461,0.404,0.564l0.074,0.624c-0.714,0.116-1.403,0.332-2.06,0.646l0.327,0.684
					c0.934-0.447,1.942-0.673,2.995-0.673c0.496,0,0.993,0.053,1.475,0.158l0.161-0.741
					C391.692,466.211,391.142,466.152,390.592,466.152z"/>
				<path id="XMLID_344_" style="fill:#1D262D;" d="M397.194,468.699c0.331-0.04,0.566-0.342,0.526-0.672
					c-0.04-0.331-0.341-0.566-0.672-0.526c-0.309,0.038-0.535,0.304-0.53,0.609l-0.416,0.363c-0.418-0.43-0.889-0.813-1.408-1.139
					l-0.404,0.641c1.134,0.715,2.021,1.726,2.563,2.925l0.69-0.313c-0.251-0.554-0.568-1.072-0.942-1.545l0.402-0.351
					C397.065,468.704,397.129,468.707,397.194,468.699z"/>
				<path id="XMLID_343_" style="fill:#1D262D;" d="M390.044,476.361c-0.386,0.023-0.775,0.035-1.157,0.035
					c-0.88,0-1.733-0.061-2.478-0.179c-0.39-0.062-0.846-0.155-1.27-0.292c1.046,1.861,3.069,3.125,5.388,3.125
					c2.855,0,5.262-1.916,5.95-4.504c-0.682,0.449-1.505,0.825-2.459,1.123C392.839,476.036,391.463,476.275,390.044,476.361z"/>
				<path id="XMLID_339_" style="fill:#1D262D;" d="M390.592,467.668c-3.352,0-6.08,2.666-6.08,5.943
					c0,0.426,0.046,0.849,0.137,1.261c0.673,0.483,2.706,0.89,5.348,0.731c2.879-0.173,5.297-0.957,6.672-2.159
					c-0.006-0.195-0.021-0.39-0.045-0.582C396.244,469.902,393.65,467.668,390.592,467.668z M388.432,474.183
					c-1.02,0-1.85-0.83-1.85-1.85c0-1.02,0.83-1.85,1.85-1.85c1.02,0,1.85,0.83,1.85,1.85
					C390.282,473.353,389.452,474.183,388.432,474.183z M393.17,473.275c-0.75,0-1.36-0.61-1.36-1.36c0-0.75,0.61-1.361,1.36-1.361
					c0.75,0,1.361,0.61,1.361,1.361C394.53,472.665,393.92,473.275,393.17,473.275z"/>
			</g>
			<path id="XMLID_336_" style="fill:#1D262D;" d="M406.595,469.535c-0.295-0.116-0.805-0.309-1.382-0.237
				c-0.551,0.069-0.844,0.341-0.844,1.007v0.866h2.228v1.717h-2.228v5.455h-1.932v-5.455h-1.34v-1.717h1.34v-0.888
				c0-1.68,0.896-2.783,2.568-2.783c0.643,0,1.157,0.122,1.59,0.308L406.595,469.535z"/>
			<path id="XMLID_334_" style="fill:#1D262D;" d="M411.298,472.867c-0.177-0.03-0.358-0.046-0.526-0.046
				c-0.895,0-1.51,0.548-1.51,1.613v3.908h-1.932v-7.172h1.873v0.785c0.451-0.673,1.14-0.977,2.021-0.977
				c0.414,0,0.848,0.128,1.094,0.337L411.298,472.867z"/>
			<path id="XMLID_331_" style="fill:#1D262D;" d="M418.965,474.746c0,0.222-0.015,0.489-0.037,0.651h-5.085
				c0.207,1.036,0.933,1.488,1.843,1.488c0.622,0,1.295-0.252,1.813-0.688l1.133,1.243c-0.814,0.748-1.85,1.088-3.057,1.088
				c-2.198,0-3.723-1.495-3.723-3.753c0-2.258,1.48-3.797,3.627-3.797C417.544,470.978,418.958,472.51,418.965,474.746z
				 M413.851,474.079h3.175c-0.177-0.918-0.733-1.436-1.562-1.436C414.554,472.643,414.021,473.191,413.851,474.079z"/>
			<path id="XMLID_328_" style="fill:#1D262D;" d="M426.618,474.746c0,0.222-0.015,0.489-0.037,0.651h-5.085
				c0.207,1.036,0.932,1.488,1.843,1.488c0.622,0,1.295-0.252,1.814-0.688l1.132,1.243c-0.814,0.748-1.85,1.088-3.057,1.088
				c-2.198,0-3.723-1.495-3.723-3.753c0-2.258,1.48-3.797,3.627-3.797C425.197,470.978,426.611,472.51,426.618,474.746z
				 M421.504,474.079h3.175c-0.178-0.918-0.733-1.436-1.562-1.436C422.207,472.643,421.674,473.191,421.504,474.079z"/>
			<path id="XMLID_325_" style="fill:#1D262D;" d="M434.964,474.753c0,2.154-1.495,3.775-3.471,3.775
				c-0.962,0-1.643-0.378-2.109-0.933v3.708h-1.924v-10.133h1.887v0.792c0.466-0.585,1.155-0.984,2.139-0.984
				C433.469,470.978,434.964,472.599,434.964,474.753z M429.287,474.753c0,1.132,0.747,1.976,1.843,1.976
				c1.14,0,1.85-0.881,1.85-1.976c0-1.095-0.711-1.976-1.85-1.976C430.035,472.777,429.287,473.621,429.287,474.753z"/>
			<path id="XMLID_322_" style="fill:#1D262D;" d="M438.067,468.824c0,0.696-0.54,1.229-1.236,1.229
				c-0.696,0-1.229-0.533-1.229-1.229c0-0.696,0.533-1.243,1.229-1.243C437.527,467.581,438.067,468.129,438.067,468.824z
				 M437.809,478.343h-1.932v-7.172h1.932V478.343z"/>
			<path id="XMLID_320_" style="fill:#1D262D;" d="M441.032,473.724l2.702-2.554h2.368l-3.479,3.375l3.501,3.797h-2.376
				l-2.716-2.901v2.901H439.1v-10.658h1.932V473.724z"/>
		</g>
		<g>
			<path style="fill:#1D262D;" d="M309.412,478.278v-1.055c-0.527,0.718-1.391,1.23-2.387,1.23c-1.846,0-3.149-1.406-3.149-3.706
				c0-2.256,1.289-3.721,3.149-3.721c0.952,0,1.816,0.469,2.387,1.245v-3.765h1.099v9.77H309.412z M309.412,476.359v-3.208
				c-0.395-0.615-1.245-1.143-2.124-1.143c-1.421,0-2.27,1.172-2.27,2.739c0,1.567,0.85,2.724,2.27,2.724
				C308.168,477.472,309.017,476.974,309.412,476.359z"/>
			<path style="fill:#1D262D;" d="M311.932,474.733c0-2.051,1.465-3.706,3.486-3.706c2.139,0,3.398,1.67,3.398,3.794v0.279h-5.727
				c0.088,1.333,1.026,2.446,2.549,2.446c0.806,0,1.626-0.322,2.182-0.893l0.527,0.718c-0.703,0.703-1.655,1.084-2.812,1.084
				C313.44,478.453,311.932,476.945,311.932,474.733z M315.404,471.935c-1.509,0-2.256,1.274-2.315,2.358h4.643
				C317.718,473.239,317.015,471.935,315.404,471.935z"/>
			<path style="fill:#1D262D;" d="M319.607,477.34l0.571-0.791c0.469,0.542,1.362,1.011,2.329,1.011c1.084,0,1.67-0.513,1.67-1.216
				c0-1.713-4.38-0.659-4.38-3.281c0-1.098,0.952-2.036,2.636-2.036c1.201,0,2.051,0.454,2.622,1.025l-0.513,0.762
				c-0.424-0.513-1.201-0.894-2.109-0.894c-0.967,0-1.567,0.483-1.567,1.113c0,1.552,4.38,0.527,4.38,3.281
				c0,1.187-0.952,2.138-2.783,2.138C321.306,478.453,320.325,478.102,319.607,477.34z"/>
			<path style="fill:#1D262D;" d="M326.477,469.46c0-0.41,0.337-0.747,0.732-0.747c0.41,0,0.747,0.337,0.747,0.747
				c0,0.41-0.337,0.732-0.747,0.732C326.814,470.192,326.477,469.87,326.477,469.46z M326.667,478.278v-7.075h1.099v7.075H326.667z"
				/>
			<path style="fill:#1D262D;" d="M329.582,480.094l0.556-0.82c0.586,0.703,1.289,0.967,2.3,0.967c1.172,0,2.27-0.571,2.27-2.124
				v-1.011c-0.513,0.718-1.377,1.26-2.373,1.26c-1.845,0-3.149-1.377-3.149-3.662c0-2.27,1.289-3.676,3.149-3.676
				c0.952,0,1.802,0.469,2.373,1.245v-1.069h1.099v6.87c0,2.344-1.641,3.076-3.369,3.076
				C331.237,481.149,330.417,480.914,329.582,480.094z M334.709,476.242v-3.091c-0.381-0.615-1.23-1.143-2.109-1.143
				c-1.421,0-2.27,1.128-2.27,2.695c0,1.553,0.849,2.695,2.27,2.695C333.478,477.399,334.328,476.857,334.709,476.242z"/>
			<path style="fill:#1D262D;" d="M342.413,478.278v-4.629c0-1.245-0.63-1.641-1.582-1.641c-0.865,0-1.685,0.527-2.095,1.099v5.17
				h-1.099v-7.075h1.099v1.025c0.498-0.586,1.465-1.201,2.519-1.201c1.48,0,2.256,0.747,2.256,2.285v4.966H342.413z"/>
			<path style="fill:#1D262D;" d="M344.932,474.733c0-2.051,1.465-3.706,3.486-3.706c2.138,0,3.398,1.67,3.398,3.794v0.279h-5.727
				c0.088,1.333,1.025,2.446,2.549,2.446c0.806,0,1.626-0.322,2.183-0.893l0.527,0.718c-0.703,0.703-1.655,1.084-2.812,1.084
				C346.441,478.453,344.932,476.945,344.932,474.733z M348.404,471.935c-1.509,0-2.256,1.274-2.314,2.358h4.643
				C350.718,473.239,350.015,471.935,348.404,471.935z"/>
			<path style="fill:#1D262D;" d="M358.35,478.278v-1.055c-0.527,0.718-1.392,1.23-2.388,1.23c-1.846,0-3.149-1.406-3.149-3.706
				c0-2.256,1.289-3.721,3.149-3.721c0.952,0,1.817,0.469,2.388,1.245v-3.765h1.098v9.77H358.35z M358.35,476.359v-3.208
				c-0.396-0.615-1.245-1.143-2.124-1.143c-1.421,0-2.27,1.172-2.27,2.739c0,1.567,0.849,2.724,2.27,2.724
				C357.105,477.472,357.954,476.974,358.35,476.359z"/>
			<path style="fill:#1D262D;" d="M364.692,478.278v-9.77h1.099v3.765c0.572-0.776,1.421-1.245,2.388-1.245
				c1.845,0,3.149,1.465,3.149,3.721c0,2.299-1.304,3.706-3.149,3.706c-0.996,0-1.86-0.513-2.388-1.23v1.055H364.692z
				 M367.9,477.472c1.436,0,2.286-1.157,2.286-2.724c0-1.568-0.85-2.739-2.286-2.739c-0.864,0-1.728,0.527-2.109,1.143v3.208
				C366.171,476.974,367.036,477.472,367.9,477.472z"/>
			<path style="fill:#1D262D;" d="M372.529,480.05c0.161,0.073,0.425,0.117,0.601,0.117c0.483,0,0.806-0.161,1.055-0.747
				l0.469-1.069l-2.959-7.148h1.187l2.358,5.801l2.344-5.801h1.201l-3.545,8.51c-0.425,1.025-1.143,1.421-2.08,1.435
				c-0.234,0-0.601-0.044-0.806-0.103L372.529,480.05z"/>
		</g>
	</g>
</g>
</svg>
